<?xml version="1.0" encoding="utf-8"?>
<!-- Generator: Adobe Illustrator 22.1.0, SVG Export Plug-In . SVG Version: 6.00 Build 0)  -->
<svg version="1.1" id="Layer_1" xmlns="http://www.w3.org/2000/svg" xmlns:xlink="http://www.w3.org/1999/xlink" x="0px" y="0px"
	 viewBox="129.788 128.788 1542.423 1542.423" enable-background="new 129.788 128.788 1542.423 1542.423" xml:space="preserve">
<g>
	<g>
		<path d="M320.748,538.164l142.689,63.018c11.215,4.956,27.076,1.507,35.205-7.68l307.125-346.399
			c8.139-9.186,6.109-11.685-4.551-5.575L319.69,518.041C309.031,524.15,309.522,533.208,320.748,538.164z M431.33,520.07
			c4.924-11.792,14.91-25.998,30.035-42.606c14.505-15.904,27.557-27.483,39.136-34.714c11.6-7.178,20.186-9.367,25.773-6.537
			c3.771,1.912,5.073,6.228,3.866,12.903c-1.207,6.676-4.24,17.132-9.047,31.392l-15.701,43.312l0.448-0.117l65.486-71.991
			l8.993,4.551l-97.657,107.313l-7.733-3.921l23.029-64.289c3.652-10.489,5.703-18.061,6.023-22.665
			c0.363-4.604-0.641-7.499-3.055-8.727c-2.841-1.442-6.985-0.642-12.39,2.393c-5.405,3.055-11.45,8.267-18.201,15.669
			c-7.818,8.599-12.689,15.766-14.611,21.469c-1.901,5.693-1.144,9.421,2.285,11.162l-24.428,26.831l-0.491,0.106
			C427.015,539.062,426.396,531.916,431.33,520.07z"/>
		<path d="M1303.337,593.492c8.139,9.187,23.968,12.647,35.204,7.68l142.7-63.008c11.236-4.956,11.707-14.014,1.058-20.123
			l-481.473-276.459c-10.649-6.11-12.69-3.61-4.551,5.575L1303.337,593.492z M1358.174,512.604l-37.021,29.224l15.53,18.734
			l-7.732,6.109l-15.488-18.745l-12.796,10.083l-20.379-24.631l12.774-10.094l-51.302-62.004l5.373-5.255l90.084,31.221
			L1358.174,512.604z M1231.965,398.936l6.526-5.244l26.286,30.089l-49.752,40.235l-17.453-21.586l41.528-33.561L1231.965,398.936z"
			/>
		<path d="M858.66,1317.363l-355.81-627.27c-6.067-10.671-14.355-9.944-18.436,1.634L293.33,1234.584
			c-4.06,11.589,2.542,22.441,14.696,24.118l539.547,74.992C859.729,1335.382,864.727,1328.022,858.66,1317.363z M490.738,1118.331
			c-15.424-3.898-27.963-13.779-37.704-29.896c-9.741-16.097-13.107-32.438-10.233-49.262c2.714-17.09,11.408-32.129,26.276-44.7
			l36.743-30.997c14.921-12.614,30.206-16.716,45.971-12.091c15.958,4.86,30.1,17.538,42.287,37.608
			c12.166,20.123,17.218,39.242,15.018,57.123c-2.425,17.56-12.017,30.996-28.689,40.631l-41.154,23.68
			C522.589,1119.986,506.375,1122.55,490.738,1118.331z M569.159,1225.879l-21.085,8.011l-42.853-59.237l152.089-76.552
			l20.411,33.699l-130.224,58.276L569.159,1225.879z"/>
		<path d="M1317.542,691.716c-4.059-11.589-12.347-12.305-18.425-1.634l-355.82,627.292c-6.088,10.659-1.089,18.008,11.087,16.342
			l539.589-75.003c12.155-1.666,18.789-12.54,14.708-24.118L1317.542,691.716z M1304.084,1199.176
			c-4.208,7.028-8.887,13.448-14.12,19.376c-5.213,5.96-10.446,11.076-15.723,15.392l-18.382-15.563
			c5.073-4.337,9.549-8.833,13.65-13.384c4.059-4.518,8.139-10.114,12.154-16.844c6.805-11.258,8.374-22.505,4.679-33.795
			c-3.653-11.396-11.856-20.85-24.834-28.155l-8.353-4.7c1.111,7.776,0.684,16.011-1.324,24.631
			c-1.944,8.599-5.575,17.25-10.852,26.03c-10.083,16.684-23.029,27.653-38.943,32.993c-16.097,5.619-32.449,5.181-48.984-1.559
			c-17.452-7.071-27.664-19.184-30.569-36.52c-2.713-17.688,2.511-37.416,15.595-59.034c13.266-21.918,29.843-36.732,49.625-44.241
			c19.524-7.071,38.836-4.508,58.063,7.52l33.944,21.213c19.141,12.006,30.665,28.283,34.853,48.577
			C1318.931,1161.023,1315.513,1180.238,1304.084,1199.176z M1367.338,1094.555l-152.697-107.997l22.431-37.042l123.772,95.928
			l14.526-23.467l18.713,16.182L1367.338,1094.555z"/>
		<path d="M446.902,630.46l-146.427-64.663c-11.227-4.946-20.412,1.035-20.412,13.309v570.051c0,12.272,3.333,12.839,7.402,1.25
			l172.446-489.89C463.972,648.949,458.129,635.427,446.902,630.46z M354.223,764.284c-3.814,14.323-9.132,25.367-15.968,33.164
			c-6.857,7.776-13.758,9.923-20.732,6.398c-6.676-3.396-10.692-10.275-12.08-20.689c-1.389-10.403-0.149-22.548,3.706-36.401
			c2.596-9.367,6.109-17.613,10.479-24.813c4.379-7.167,10.873-16.427,19.503-27.781l25.892-32.769l0.043-0.609L334.9,645.521
			l6.163-22.11l44.978,22.708l-5.309,19.077l-38.506,49.047c-6.302,8.183-11.065,15.157-14.217,20.936
			c-3.172,5.778-5.586,11.621-7.23,17.57c-1.987,7.071-2.767,13.266-2.339,18.543c0.427,5.297,2.189,8.736,5.276,10.274
			c3.6,1.838,7.146,0.46,10.606-4.143c3.46-4.583,6.376-11.141,8.716-19.568l11.278,5.683L354.223,764.284z M379.099,801.465
			l-6.131,22.046l-21.063-3.878l49.816-165.61l11.621,5.886l-42.041,137.626L379.099,801.465z"/>
		<path d="M1501.524,565.797l-146.47,64.674c-11.216,4.956-17.068,18.489-12.988,30.067l172.457,489.868
			c4.059,11.61,7.413,11.022,7.413-1.229V579.116C1521.937,566.832,1512.751,560.851,1501.524,565.797z M1381.586,650.349
			l43.045-14.463l8.043,16.642l-43.056,14.441L1381.586,650.349z M1484.852,813.694c-2.168,14.195-7.937,22.847-17.261,25.977
			c-3.472,1.153-7.007,1.677-10.596,1.57c-3.61-0.128-7.039-0.727-10.243-1.826l-4.006-21.394c3.065,0.898,5.961,1.452,8.663,1.612
			c2.713,0.203,5.746-0.256,8.908-1.335c5.394-1.815,8.47-7.146,9.143-16.021c0.759-8.876-1.101-19.686-5.341-32.439l-2.787-8.257
			c-0.973,5.074-2.703,9.368-5.213,12.871c-2.499,3.483-5.735,5.917-9.741,7.253c-7.604,2.542-15.124-0.107-22.602-7.99
			c-7.487-7.903-13.8-19.396-18.916-34.553c-5.372-16.012-7.081-29.833-5.19-41.443c1.922-11.621,7.188-18.862,15.84-21.757
			c8.737-2.927,17.795,0.277,27.236,9.602c9.421,9.347,17.368,23.766,23.937,43.248l11.6,34.447
			C1484.852,782.677,1487.03,799.488,1484.852,813.694z"/>
		<path d="M1433.924,1300.839l-494.108,68.637c-12.134,1.678-22.089,13.117-22.089,25.379v191.342
			c0,12.24,8.694,17.282,19.333,11.15l499.663-288.443C1447.34,1302.794,1446.079,1299.151,1433.924,1300.839z M1117.015,1434.14
			c-5.255,12.294-16,25.592-32.182,39.841c-14.612,12.87-29.79,22.548-45.565,29.181c-15.755,6.568-27.568,6.985-35.345,1.281
			l-0.213-0.491l26.66-23.487c4.037,2.681,9.965,2.638,17.858-0.097c7.84-2.691,15.798-7.637,23.861-14.697
			c8.353-7.391,13.598-14.206,15.616-20.379c2.072-6.302,0.865-10.842-3.567-13.801c-5.469-3.546-11.792-4.187-19.056-1.891
			c-7.284,2.297-15.615,7.53-24.908,15.787l-18.479,16.225l-12.518-8.257l18.478-16.225c8.994-7.893,14.143-14.397,15.51-19.567
			c1.409-5.191-0.246-9.324-4.882-12.348c-4.102-2.681-9.592-3.076-16.48-0.982c-6.836,2.029-14.345,6.569-22.409,13.672
			c-7.477,6.569-12.369,12.86-14.74,18.884c-2.414,6.024-1.666,10.297,2.179,12.85l-26.553,23.349l-0.662-0.053
			c-7.787-4.38-9.015-12.668-3.846-24.866c5.159-12.165,15.424-25.058,30.772-38.548c16.192-14.259,31.242-24,45.213-29.287
			c13.929-5.298,25.282-5.021,34.063,0.715c4.348,2.916,6.248,7.349,5.8,13.395c-0.502,6.056-3.396,12.978-8.759,20.807
			c10.34-6.142,19.739-9.955,28.092-11.386c8.331-1.421,15.264-0.342,20.732,3.269
			C1120.582,1412.799,1122.323,1421.835,1117.015,1434.14z"/>
		<path d="M862.121,1369.497l-494.066-68.658c-12.155-1.666-13.437,1.977-2.777,8.086l499.642,288.443
			c10.639,6.152,19.322,1.144,19.322-11.15v-191.331C884.231,1382.614,874.275,1371.185,862.121,1369.497z M666.101,1451.325
			l63.81-69.545l-19.301-6.173l9.858-11.696l45.565,12.817l-75.259,89.283L666.101,1451.325z M855.136,1455.736
			c-26.532,1.977-46.527,6.057-60.007,12.134c-13.479,6.067-25.037,15.381-34.671,27.964l-8.214,10.596l-23.06-15.061l8.203-10.617
			c10.04-13.073,22.836-22.462,38.345-28.272c15.541-5.758,34.522-9.603,57.017-11.376l-61.962-41.688l10.885-14.024l84.381,56.343
			L855.136,1455.736z"/>
		<path d="M1262.663,647.187H539.295c-12.263,0-17.357,8.727-11.301,19.418l361.951,638.091c6.056,10.67,15.968,10.67,22.035,0
			l361.993-638.091C1280.009,655.924,1274.946,647.187,1262.663,647.187z M973.781,1019.487
			c-18.479,15.136-41.935,22.698-70.432,22.698c-30.26,0-54.965-7.563-74.106-22.698c-19.162-15.124-28.732-36.508-28.732-64.183
			c0-16.363,5.021-30.751,15.039-43.344c10.02-12.518,23.627-22.003,40.781-28.412c-14.409-6.27-25.795-15.178-34.116-26.682
			c-8.31-11.503-12.486-24.769-12.486-39.766c0-26.297,8.577-46.409,25.753-60.316c17.175-13.917,39.658-20.85,67.462-20.85
			c26.297,0,47.809,6.997,64.514,20.957c16.651,13.96,25.025,34.03,25.025,60.209c0,14.997-4.026,28.252-12.069,39.766
			c-8.022,11.504-18.916,20.412-32.716,26.682c16.363,6.398,29.415,15.883,39.156,28.412c9.784,12.561,14.634,26.981,14.634,43.344
			C1001.488,982.979,992.217,1004.374,973.781,1019.487z"/>
		<path d="M547.775,613.723h706.428c12.262,0,15.669-7.52,7.53-16.705L915.782,206.879c-8.139-9.175-21.469-9.175-29.586,0
			l-345.94,390.128C532.117,606.192,535.492,613.723,547.775,613.723z M936.099,395.945c11.247-11.493,26.382-17.261,45.565-17.261
			c19.204,0,35.311,5.757,48.566,17.261c13.63,11.515,22.164,27.141,25.442,46.933l8.022,48.813
			c3.268,19.846-0.919,35.494-12.839,46.923c-12.22,11.429-30.164,17.132-53.534,17.132c-23.392,0-42.383-5.725-56.76-17.196
			c-14.034-11.461-21.084-27.098-21.201-46.869l-0.471-48.813C918.752,423.086,924.573,407.439,936.099,395.945z M740.634,533.519
			l78.153-62.186c11.878-10.308,20.06-18.82,24.727-25.518c4.614-6.687,7.081-13.127,7.52-19.269
			c0.513-7.316-1.475-13.287-5.918-17.901c-4.379-4.604-10.981-6.922-19.803-6.922c-10.275,0-18.5,2.895-24.748,8.642
			c-6.291,5.757-10.083,12.998-11.312,21.746h-33.239l-0.16-0.705c2.179-14.739,10.062-27.204,23.402-37.405
			c13.041-10.243,29.116-15.306,48.406-15.306c18.511-0.011,32.685,4.411,42.725,13.223c10.254,8.823,15.242,20.423,14.814,34.746
			c-0.299,9.688-3.706,18.788-10.307,27.301c-6.729,8.513-17.934,19.91-33.849,34.169l-51.44,41.593l0.225,0.608h99.206
			l-0.534,22.922h-151.33L740.634,533.519z"/>
		<path d="M1452.167,753.122c-1.73,3.087-4.314,5.223-7.797,6.419c-4.582,1.538-9.036,0-13.512-4.55
			c-4.348-4.571-8.128-11.515-11.226-20.796c-3.184-9.485-4.572-17.678-4.166-24.599c0.428-6.9,2.799-11.087,7.113-12.551
			c4.465-1.484,9.336,0.876,14.634,7.071c5.298,6.216,10.083,15.615,14.291,28.229l3.183,9.464
			C1454.688,746.222,1453.854,750.035,1452.167,753.122z"/>
		<path d="M582.148,1030.628c1.922-9.036-0.214-18.66-6.323-28.796c-6.152-10.137-13.395-16.001-21.726-17.656
			c-8.31-1.602-16.983,1.153-26.083,8.203l-44.434,34.223c-8.897,6.868-14.409,14.654-16.577,23.359
			c-2.179,8.588-0.727,17.09,4.422,25.581c5.212,8.588,11.835,13.469,19.952,14.687c8.203,1.314,17.025-1.015,26.457-7.038
			l47.008-30.004C574.414,1047.088,580.182,1039.59,582.148,1030.628z"/>
		<path d="M967.33,523.062c6.878,6.505,16.235,9.752,28.027,9.752s20.508-3.226,26.115-9.689c5.554-6.451,7.53-15.562,6.066-27.311
			l-7.167-57.325c-1.452-11.504-5.447-20.508-11.974-27.002c-6.43-6.494-14.633-9.763-24.716-9.763
			c-10.243,0-17.891,3.269-23.039,9.763c-5.266,6.494-7.648,15.498-7.124,27.002l2.83,57.325
			C956.884,507.488,960.536,516.557,967.33,523.062z"/>
		<path d="M1233.183,1110.16l-9.57-5.438c-4.208-2.382-8.331-4.005-12.411-5.287c-8.225-2.584-16.192-3.14-23.861-1.207
			c-11.6,3.002-20.722,10.052-27.302,20.979c-6.408,10.648-8.245,20.454-5.447,29.522c2.905,8.876,9.336,15.637,19.461,20.262
			c4.936,2.254,9.795,3.525,14.612,3.867c4.796,0.299,9.527-0.342,14.228-1.944c9.26-3.183,16.993-9.88,23.221-20.209
			c4.807-7.968,7.732-15.338,8.779-22.174C1235.96,1121.631,1235.394,1115.521,1233.183,1110.16z"/>
		<polygon points="1324.239,498.666 1323.759,498.003 1319.636,497.405 1268.965,478.691 1300.794,517.176 		"/>
		<path d="M937.893,917.579c-9.367-9.346-21.042-14.014-34.938-14.014c-15.264,0-27.889,4.657-37.811,14.014
			c-9.955,9.304-14.911,21.256-14.911,35.824c0,14.868,4.935,26.768,14.814,35.739c9.87,8.876,22.666,13.373,38.324,13.373
			c13.918,0,25.464-4.486,34.788-13.373c9.239-8.93,13.854-20.828,13.854-35.739C951.991,938.856,947.292,926.894,937.893,917.579z"
			/>
		<path d="M859.387,818.918c0,13.352,4.102,24.16,12.283,32.406c8.16,8.246,18.724,12.358,31.658,12.358
			c11.461,0,20.871-4.102,28.306-12.358c7.466-8.225,11.161-19.034,11.161-32.396c0-12.807-3.738-23.2-11.226-31.168
			c-2.639-2.841-5.672-4.988-8.833-6.814c-2.468-1.421-5.084-2.521-7.84-3.343c-1.207-0.353-2.371-0.845-3.632-1.079
			c-0.288-0.054-0.651-0.032-0.94-0.086c-2.371-0.395-4.796-0.673-7.349-0.673c-13.073,0-23.626,3.867-31.605,11.558
			C863.402,795.024,859.387,805.577,859.387,818.918z"/>
	</g>
</g>
</svg>
