<?xml version="1.0" encoding="utf-8"?>
<!-- Generator: Adobe Illustrator 19.2.1, SVG Export Plug-In . SVG Version: 6.00 Build 0)  -->
<svg version="1.1" id="Layer_1" xmlns="http://www.w3.org/2000/svg" xmlns:xlink="http://www.w3.org/1999/xlink" x="0px" y="0px"
	 viewBox="0 0 22 22" style="enable-background:new 0 0 22 22;" xml:space="preserve">
<style type="text/css">
	.st0{fill:#ECBE57;}
</style>
<path class="st0" d="M1.3,9.4c1.8-5.9,8.5-5.3,8.5-5.3L4.3,1L2.7,0.2c-1.7-0.8-1.3,1-1.3,1V9.4z M1.3,12.6v8.2c0,0-0.3,1.8,1.3,1
	l1.7-0.8l5.5-3.1C9.8,17.9,3.2,18.5,1.3,12.6z M20,10.3l-1.6-1L13,6.2c0,0,4,5.3-0.1,10l7-4.3C19.9,12,21.6,11.3,20,10.3z"/>
<circle class="st0" cx="8.1" cy="11" r="4.2"/>
</svg>
