<?xml version="1.0" encoding="utf-8"?>
<!-- Generator: Adobe Illustrator 22.1.0, SVG Export Plug-In . SVG Version: 6.00 Build 0)  -->
<svg version="1.1" id="Слой_1" xmlns="http://www.w3.org/2000/svg" xmlns:xlink="http://www.w3.org/1999/xlink" x="0px" y="0px"
	 viewBox="0 0 48 48" enable-background="new 0 0 48 48" xml:space="preserve">
<g id="bronze_coin_2_">
	
		<ellipse transform="matrix(0.2202 -0.9755 0.9755 0.2202 -4.6874 42.139)" fill="#E6A117" cx="24.011" cy="24.001" rx="24" ry="24"/>
	
		<ellipse transform="matrix(0.2243 -0.9745 0.9745 0.2243 -4.7637 42.0177)" fill="#C38425" cx="24.011" cy="24.001" rx="19.597" ry="19.597"/>
	<g>
		
			<ellipse transform="matrix(0.1598 -0.9872 0.9872 0.1598 -4.6284 44.814)" fill="#A16733" cx="24.011" cy="25.126" rx="12.498" ry="12.498"/>
		
			<ellipse transform="matrix(0.1598 -0.9872 0.9872 0.1598 -3.5181 43.8689)" fill="#E6A117" cx="24.011" cy="24.001" rx="12.498" ry="12.498"/>
	</g>
	<path fill="#A16733" d="M43.602,23.996c0,0.176,0,0.352-0.01,0.518C43.323,13.936,34.662,5.44,24.011,5.44
		c-10.651,0-19.322,8.496-19.592,19.074c-0.01-0.166-0.01-0.342-0.01-0.518c0-10.816,8.775-19.592,19.602-19.592
		C34.838,4.404,43.602,13.18,43.602,23.996z"/>
	<path fill="#BD8648" d="M43.602,23.996c0,10.827-8.765,19.602-19.592,19.602c-10.827,0-19.602-8.775-19.602-19.602
		c0-0.176,0-0.352,0.01-0.518c0.269,10.588,8.941,19.084,19.592,19.084c10.651,0,19.312-8.496,19.581-19.084
		C43.602,23.644,43.602,23.82,43.602,23.996z"/>
	<g>
		<path opacity="0.3" fill="#BD8648" d="M5.248,29.673l-3.896,2.248c-0.363-1.005-0.642-2.041-0.86-3.108l4.082-2.352
			C4.699,27.56,4.927,28.637,5.248,29.673z"/>
		<path opacity="0.3" fill="#BD8648" d="M42.194,8.341l-3.906,2.248c-0.736-0.798-1.554-1.533-2.435-2.196l4.072-2.352
			C40.733,6.756,41.489,7.523,42.194,8.341z"/>
		<path opacity="0.3" fill="#BD8648" d="M38.402,11.626L5.559,30.596c-0.114-0.301-0.218-0.611-0.311-0.922
			c-0.218-0.715-0.394-1.45-0.528-2.196L35.957,9.429C36.848,10.092,37.666,10.828,38.402,11.626z"/>
		<path opacity="0.3" fill="#BD8648" d="M11.589,39.164l-4.02,2.321c-1.316-1.233-2.487-2.611-3.491-4.113L7.9,35.165
			C8.936,36.667,10.19,38.014,11.589,39.164z"/>
		<path opacity="0.3" fill="#BD8648" d="M47.363,18.505l-4.02,2.321c-0.29-1.823-0.839-3.574-1.606-5.191l3.823-2.207
			C46.348,15.024,46.959,16.733,47.363,18.505z"/>
		<path opacity="0.3" fill="#BD8648" d="M43.447,21.862l-31.04,17.934c-0.28-0.207-0.549-0.414-0.819-0.632
			c-1.16-0.953-2.217-2.041-3.119-3.232l33.381-19.26C42.618,18.287,43.167,20.038,43.447,21.862z"/>
	</g>
</g>
</svg>
