<?xml version="1.0" encoding="utf-8"?>
<!-- Generator: Adobe Illustrator 22.1.0, SVG Export Plug-In . SVG Version: 6.00 Build 0)  -->
<svg version="1.1" id="Слой_1" xmlns="http://www.w3.org/2000/svg" xmlns:xlink="http://www.w3.org/1999/xlink" x="0px" y="0px"
	 viewBox="0 0 48 48" enable-background="new 0 0 48 48" xml:space="preserve">
<g id="gold_3_" display="none">
	<path display="inline" fill="#996B10" d="M28.025,42.15c-5.568,0-11.465-1.214-15.775-3.248c-3.821-1.803-5.029-3.046-6.427-4.486
		c-0.388-0.399-0.788-0.811-1.27-1.258c-2.797-2.589-2.626-8.236-2.489-12.773c0.028-0.915,0.054-1.779,0.052-2.529
		c-0.006-2.06,1.369-4.466,3.774-6.602c2.325-2.065,5.382-3.669,8.389-4.402c2.653-0.646,5.804-1.002,8.873-1.002
		c2.707,0,5.237,0.269,7.519,0.801c2.659,0.619,4.913,1.584,6.7,2.867c2.769,1.989,4.957,4.437,6.503,7.277
		c1.619,2.976,2.009,5.424,2.097,6.618c0.216,2.936-0.777,7.481-1.371,10.196c-0.086,0.393-0.16,0.732-0.219,1.015
		c-0.324,1.55-1.692,3.19-3.754,4.499c-1.588,1.008-4.36,2.312-8.553,2.799C30.774,42.074,29.412,42.15,28.025,42.15z M23.151,8.5
		c-2.864,0-5.792,0.329-8.246,0.927c-2.6,0.634-5.245,2.022-7.257,3.809c-1.783,1.583-2.888,3.351-2.884,4.613
		c0.002,0.794-0.024,1.68-0.053,2.617c-0.115,3.789-0.272,8.978,1.64,10.748c0.534,0.494,0.959,0.932,1.371,1.356
		c1.269,1.306,2.271,2.338,5.658,3.936c3.914,1.847,9.525,2.995,14.644,2.995c1.285,0,2.545-0.071,3.743-0.21
		c3.694-0.429,6.084-1.544,7.438-2.404c1.697-1.078,2.451-2.184,2.581-2.804c0.062-0.296,0.137-0.64,0.224-1.039
		c0.526-2.406,1.505-6.885,1.317-9.436c-0.235-3.19-2.341-8.231-7.503-11.938C32.978,9.626,28.477,8.5,23.151,8.5z"/>
	<g display="inline">
		<path fill="#C98712" d="M5.452,32.186c-2.872-2.659-1.694-9.833-1.707-14.114c-0.01-3.46,3.004-6.589,8.986-8.047
			c5.982-1.458,16.488-3.349,22.284,0.814c5.796,4.163,9.219,8.692,9.452,11.852c0.233,3.159-0.925,9.463-1.385,11.664
			c-0.46,2.201-4.265,5.452-11.162,6.253c-6.897,0.8-14.431-0.697-19.105-2.903C8.141,35.498,7.671,34.239,5.452,32.186z"/>
		<path fill="#E8AF2E" d="M36.37,38.48c0.337-1.613,0.799-6.17,0.628-8.484c-0.171-2.314-2.292-5.692-6.538-8.741
			c-4.246-3.049-11.941-1.664-16.323-0.596c-4.382,1.068-6.143,3.681-6.135,6.215c0.007,2.184-0.625,5.238-0.3,7.55
			c1.055,1.002,2.349,1.975,5.113,3.28c4.674,2.206,12.207,3.703,19.105,2.903c1.332-0.154,2.548-0.401,3.648-0.714
			C36.007,39.4,36.28,38.912,36.37,38.48z"/>
		<path fill="#E8C949" d="M12.815,37.704c4.291,2.026,10.993,3.453,17.4,3.053c0.457-4.158,0.968-9.26,0.757-11.186
			c-0.343-3.142,1.75-4.524-1.952-9.01c-3.702-4.487-6.04-2.8-9.486-1.735c-3.446,1.065-6.522,2.873-6.292,6.298
			c0.225,3.329-1.263,8.76-1.007,12.302C12.423,37.516,12.614,37.609,12.815,37.704z"/>
		<path fill="#FFE888" d="M19.847,32.099c-1.644,0.516-3.109,1.397-2.992,3.081c0.077,1.106-0.216,2.683-0.375,4.126
			c2.463,0.886,5.544,1.521,8.704,1.661c0.132-1.488,0.223-2.905,0.15-3.564c-0.171-1.545,0.825-2.218-0.953-4.431
			C22.604,30.759,21.491,31.583,19.847,32.099z"/>
	</g>
	<g display="inline">
		<path fill="#F3F594" d="M4.428,15.569c-2.18,2.387-1.038,12.143,9.018,15.913c10.057,3.77,15.084,3.918,23.158,1.211
			c5.899-1.977,9.253-4.671,6.983-10.444c-2.27-5.773-5.776-10.822-16.82-12.31C15.547,8.429,8.109,11.539,4.428,15.569z"/>
		<path fill="#F2D455" d="M4.831,14.708c-2.487,3.047-0.371,11.241,9.685,15.011c10.056,3.77,14.778,3.699,22.853,0.992
			c5.899-1.977,8.774-4.286,6.503-10.059c-2.27-5.773-6.428-11.52-17.471-13.008C15.181,6.134,8.279,10.483,4.831,14.708z"/>
		<path fill="#F3F594" d="M7.169,13.858c-1.923,2.204-0.802,10.038,8.168,13.604c8.97,3.567,13.095,3.059,20.259,0.594
			c5.235-1.8,8.115-4.079,6.058-9.457c-2.056-5.379-3.628-9.367-14.726-11.036C15.579,5.857,10.417,10.135,7.169,13.858z"/>
		<path fill="#E8AF2E" d="M8.466,15.522c-1.819,1.992-0.75,9.449,7.643,12.596c8.393,3.146,12.335,3.087,19.073,0.828
			c4.924-1.65,6.779-4.16,4.884-8.978c-1.895-4.818-2.956-8.654-14.038-10.274C16.68,8.328,11.539,12.158,8.466,15.522z"/>
		<path fill="#C98712" d="M9.505,19.28c3.072-3.364,8.214-7.194,17.563-5.828c10.44,1.526,13.716,9.448,13.716,9.448
			s-0.511-1.78-0.716-2.932c-0.797-4.462-3.887-9.856-14.038-10.274c-10.175-0.419-13.314,1.93-17.258,6.002
			c-1.015,1.048-1.424,3.579-0.016,6.307C8.717,20.813,8.999,19.835,9.505,19.28z"/>
	</g>
	<g display="inline">
		<path fill="#C98712" d="M14.656,21.882c1.781-2.996,10.118-5.753,12.039-6.298c1.921-0.544,4.554,1.769,5,6.151
			c0.447,4.382,2.409,7.293-1.946,6.73c-2.802-0.362-5.021-0.711-9.885-2.236C16.696,25.236,13.677,23.528,14.656,21.882z"/>
		<polygon fill="#C98712" points="14.642,23.368 14.594,19.913 32.284,23.854 32.447,28.033 		"/>
		<path fill="#F3F594" d="M14.968,19.113c1.781-2.996,9.734-6.683,11.655-7.227c1.921-0.544,4.088,1.837,4.948,6.159
			c0.923,4.633,2.536,7.752-1.819,7.19c-2.802-0.362-5.989-1.314-9.676-2.46C16.453,21.649,13.989,20.76,14.968,19.113z"/>
		<path fill="#F2D455" d="M17.934,19.106c1.28-2.153,6.997-4.804,8.378-5.195c1.381-0.391,2.917,1.327,3.238,4.476
			c0.321,3.15,2.142,5.523-0.989,5.119c-2.014-0.26-4.305-0.945-6.955-1.768C19.002,20.928,17.231,20.289,17.934,19.106z"/>
		<g>
			<path fill="#F3F594" d="M27.761,20.147c-0.357,1.108-1.923,1.606-3.496,1.112c-1.573-0.493-2.559-1.791-2.201-2.898
				c0.357-1.108,1.923-1.606,3.496-1.112C27.133,17.742,28.118,19.04,27.761,20.147z"/>
			<path fill="#E8AF2E" d="M24.921,19.919c-1.322-0.414-2.225-1.397-2.269-2.357c-0.277,0.21-0.485,0.477-0.589,0.798
				c-0.357,1.107,0.628,2.405,2.201,2.898c1.574,0.493,3.139-0.005,3.496-1.112c0.057-0.177,0.077-0.359,0.068-0.542
				C27.15,20.118,26.039,20.27,24.921,19.919z"/>
		</g>
	</g>
</g>
<g id="gold_10_">
	<path fill="#993B11" d="M24.188,41.666C24.187,41.666,24.187,41.666,24.188,41.666c-4.125,0-8.189-0.61-11.755-1.764
		c-3.925-1.27-6.328-3.052-7.652-4.324c-1.721-1.652-2.71-3.489-2.715-5.039c-0.001-0.375-0.012-0.856-0.024-1.412
		c-0.062-2.762-0.155-6.937,0.596-9.582c0.541-1.91,1.772-4.088,3.375-5.977c2.074-2.442,4.671-4.379,7.721-5.756
		c2.172-0.981,4.804-1.478,7.823-1.478c5.66,0,11.379,1.729,14.844,3.346c2.74,1.279,5.357,3.405,7.18,5.831
		c1.886,2.511,2.731,5.083,2.319,7.058c-0.15,0.719-0.296,1.553-0.449,2.435c-0.763,4.375-1.712,9.821-4.901,11.766
		c-0.551,0.336-1.017,0.655-1.467,0.963c-1.624,1.112-3.027,2.072-7.045,3.069C29.759,41.367,27.045,41.666,24.188,41.666z
		 M21.555,8.926c-2.649,0-4.922,0.42-6.756,1.248C8.632,12.96,5.82,17.82,5.13,20.252c-0.644,2.271-0.552,6.369-0.498,8.817
		c0.013,0.569,0.024,1.061,0.025,1.461c0.002,0.618,0.506,1.821,1.918,3.178c1.128,1.083,3.199,2.609,6.655,3.728
		c3.312,1.071,7.1,1.638,10.956,1.638c0,0,0.001,0,0.001,0c2.65,0,5.148-0.272,7.223-0.787c3.564-0.884,4.729-1.682,6.204-2.692
		c0.478-0.327,0.972-0.666,1.582-1.037c2.186-1.333,3.059-6.341,3.697-9.997c0.158-0.905,0.307-1.759,0.466-2.52
		c0.252-1.208-0.458-3.113-1.854-4.971c-1.576-2.097-3.837-3.934-6.204-5.039C32.089,10.529,26.79,8.926,21.555,8.926z"/>
	<g>
		<path fill="#DF6309" d="M39.872,35.664c3.279-2,3.564-9.104,4.421-13.207c0.692-3.316-1.581-6.893-7.029-9.437
			c-5.449-2.544-15.15-6.37-21.529-3.488C9.355,12.413,5.18,16.1,4.333,19.085c-0.846,2.985-0.979,9.251-0.972,11.45
			c0.007,2.199,3.014,6.045,9.47,8.134c6.456,2.089,13.975,2.096,18.892,0.875C36.641,38.324,37.34,37.208,39.872,35.664z"/>
		<path fill="#DB6209" d="M8.984,35.777c-0.005-1.611,0.451-6.069,1.071-8.256c0.62-2.186,3.32-5.019,7.993-7.129
			c4.672-2.111,11.779,0.692,15.77,2.555c3.991,1.863,5.164,4.706,4.657,7.134c-0.437,2.093-0.433,5.143-1.201,7.298
			c-1.209,0.759-2.642,1.444-5.549,2.165c-4.917,1.22-12.436,1.213-18.892-0.875c-1.247-0.403-2.364-0.873-3.357-1.384
			C9.15,36.728,8.985,36.208,8.984,35.777z"/>
		<path fill="#FA8406" d="M31.723,39.544c-4.515,1.12-11.223,1.205-17.287-0.405c0.382-4.074,0.898-9.065,1.48-10.872
			c0.949-2.947-0.785-4.673,3.649-8.266c4.434-3.593,6.344-1.528,9.438,0.153c3.095,1.682,5.688,4.004,4.791,7.245
			c-0.872,3.149-0.516,8.642-1.461,11.989C32.137,39.44,31.935,39.492,31.723,39.544z"/>
		<path fill="#F59B06" d="M26.086,32.823c1.475,0.81,2.706,1.936,2.261,3.528c-0.293,1.046-0.322,2.614-0.454,4.028
			c-2.537,0.378-5.616,0.397-8.674-0.075c0.167-1.453,0.359-2.828,0.559-3.446c0.468-1.448-0.354-2.286,1.787-4.066
			C23.707,31.011,24.612,32.013,26.086,32.823z"/>
	</g>
	<g>
		<path fill="#F7BA41" d="M44.132,19.926c1.619,2.706-1.399,11.843-11.786,13.531c-10.387,1.689-15.237,0.867-22.446-3.274
			c-5.267-3.026-7.951-6.252-4.636-11.352c3.315-5.101,7.673-9.272,18.556-8.582C34.878,10.949,41.397,15.356,44.132,19.926z"/>
		<path fill="#F59B06" d="M43.915,19.023c1.784,3.399-1.861,10.85-12.248,12.539c-10.387,1.689-14.901,0.716-22.109-3.426
			c-5.267-3.026-7.568-5.79-4.253-10.891c3.315-5.101,8.435-9.816,19.319-9.126C35.681,8.818,41.442,14.311,43.915,19.023z"/>
		<path fill="#F7BA41" d="M41.841,17.76c1.41,2.482-1.21,9.779-10.515,11.481c-9.304,1.702-13.16,0.425-19.544-3.311
			c-4.665-2.729-6.977-5.466-3.944-10.229c3.033-4.764,5.326-8.288,16.297-7.762C35.354,8.477,39.461,13.568,41.841,17.76z"/>
		<path fill="#FA8406" d="M40.268,19.107c1.351,2.259-1.144,9.205-9.813,10.615c-8.669,1.409-12.436,0.597-18.453-2.86
			c-4.396-2.525-5.68-5.287-2.913-9.544c2.767-4.257,4.542-7.733,15.487-7.163C33.811,10.636,37.986,15.293,40.268,19.107z"/>
		<path fill="#DF6309" d="M38.531,22.512c-2.283-3.815-6.458-8.471-15.692-8.952c-10.312-0.537-15.015,6.432-15.015,6.432
			s0.841-1.609,1.265-2.674c1.644-4.126,5.671-8.707,15.487-7.163c9.84,1.548,12.386,4.401,15.366,9.061
			c0.767,1.2,0.66,3.704-1.228,6.051C38.984,24.133,38.907,23.141,38.531,22.512z"/>
	</g>
	<g>
		<path fill="#DF6309" d="M33.079,24.02c-1.117-3.214-8.568-7.455-10.302-8.345c-1.734-0.89-4.716,0.824-6.008,4.94
			c-1.292,4.116-3.749,6.532,0.538,6.826c2.759,0.19,4.955,0.28,9.92-0.251C30.462,26.845,33.693,25.786,33.079,24.02z"/>
		<polygon fill="#DF6309" points="32.799,25.448 33.527,22.144 15.786,22.535 14.806,26.51 		"/>
		<path fill="#F7BA41" d="M33.326,21.306c-1.117-3.214-8.016-8.273-9.751-9.163c-1.734-0.89-4.282,0.978-5.96,4.958
			c-1.798,4.266-3.961,6.948,0.327,7.243c2.759,0.19,6.002-0.113,9.763-0.506C31.402,23.452,33.939,23.072,33.326,21.306z"/>
		<path fill="#F59B06" d="M30.483,20.73c-0.803-2.31-5.762-5.947-7.009-6.587c-1.247-0.64-3.059,0.713-3.988,3.672
			c-0.93,2.959-3.143,4.886-0.062,5.098c1.983,0.137,4.315-0.081,7.018-0.363C29.1,22.273,30.924,22,30.483,20.73z"/>
		<g>
			<path fill="#F7BA41" d="M20.854,19.846c0.125,1.13,1.527,1.908,3.133,1.736c1.606-0.172,2.807-1.227,2.682-2.358
				c-0.124-1.13-1.527-1.908-3.133-1.736C21.931,17.661,20.73,18.716,20.854,19.846z"/>
			<path fill="#DB6209" d="M23.622,20.172c1.349-0.144,2.409-0.913,2.641-1.825c0.225,0.254,0.371,0.55,0.407,0.878
				c0.124,1.13-1.076,2.186-2.682,2.358c-1.606,0.172-3.009-0.606-3.133-1.736c-0.02-0.181-0.003-0.359,0.042-0.532
				C21.447,19.936,22.482,20.294,23.622,20.172z"/>
		</g>
	</g>
</g>
</svg>
