<?xml version="1.0" encoding="utf-8"?>
<!-- Generator: Adobe Illustrator 22.1.0, SVG Export Plug-In . SVG Version: 6.00 Build 0)  -->
<svg version="1.1" id="Слой_1" xmlns="http://www.w3.org/2000/svg" xmlns:xlink="http://www.w3.org/1999/xlink" x="0px" y="0px"
	 viewBox="0 0 320 320" enable-background="new 0 0 320 320" xml:space="preserve">
<g>
	<linearGradient id="SVGID_1_" gradientUnits="userSpaceOnUse" x1="159.9502" y1="15.6557" x2="159.9502" y2="302.3206">
		<stop  offset="0" style="stop-color:#F7B900"/>
		<stop  offset="1" style="stop-color:#F29B00"/>
	</linearGradient>
	<path fill="url(#SVGID_1_)" d="M278.87,82.778L224.22,51.225l-59.302-34.238c-3.074-1.775-6.861-1.775-9.934,0L41.03,82.778
		c-4.198,2.424-6.784,6.903-6.784,11.75v55.854v73.63c0,4.847,2.586,9.326,6.784,11.75l62.422,36.039l49.714,28.702
		c4.198,2.424,9.37,2.424,13.568,0l112.136-64.742c4.198-2.424,6.784-6.903,6.784-11.75v-33.534v-95.95
		C285.654,89.68,283.068,85.201,278.87,82.778z"/>
	<linearGradient id="SVGID_2_" gradientUnits="userSpaceOnUse" x1="159.9502" y1="295.2283" x2="159.9502" y2="168.9865">
		<stop  offset="0" style="stop-color:#ED8200"/>
		<stop  offset="1" style="stop-color:#D46300"/>
	</linearGradient>
	<polygon fill="url(#SVGID_2_)" points="159.95,308.555 245.522,215.372 74.378,215.372 	"/>
	<linearGradient id="SVGID_3_" gradientUnits="userSpaceOnUse" x1="159.8337" y1="67.426" x2="159.8337" y2="215.372">
		<stop  offset="0" style="stop-color:#F7B900"/>
		<stop  offset="1" style="stop-color:#F29B00"/>
	</linearGradient>
	<polygon fill="url(#SVGID_3_)" points="159.95,67.426 245.289,215.238 74.378,215.372 	"/>
	<linearGradient id="SVGID_4_" gradientUnits="userSpaceOnUse" x1="304.9135" y1="90.3102" x2="190.7053" y2="147.4145">
		<stop  offset="0" style="stop-color:#F29B00"/>
		<stop  offset="1" style="stop-color:#ED8200"/>
	</linearGradient>
	<polygon fill="url(#SVGID_4_)" points="159.95,67.426 245.522,215.372 289.228,84.639 	"/>
	<linearGradient id="SVGID_5_" gradientUnits="userSpaceOnUse" x1="155.6227" y1="142.0857" x2="44.142" y2="140.0951">
		<stop  offset="0" style="stop-color:#FFD500"/>
		<stop  offset="1" style="stop-color:#F7B900"/>
	</linearGradient>
	<polygon fill="url(#SVGID_5_)" points="159.95,67.426 30.672,84.639 74.378,215.372 	"/>
	<linearGradient id="SVGID_6_" gradientUnits="userSpaceOnUse" x1="224.5892" y1="10" x2="224.5892" y2="84.6386">
		<stop  offset="0" style="stop-color:#F7B900"/>
		<stop  offset="1" style="stop-color:#F29B00"/>
	</linearGradient>
	<polygon fill="url(#SVGID_6_)" points="159.95,67.426 159.95,10 289.228,84.639 	"/>
	<linearGradient id="SVGID_7_" gradientUnits="userSpaceOnUse" x1="94.7801" y1="97.0173" x2="96.2731" y2="38.042">
		<stop  offset="0" style="stop-color:#FFE30F"/>
		<stop  offset="1" style="stop-color:#FFD500"/>
	</linearGradient>
	<polygon fill="url(#SVGID_7_)" points="159.95,67.426 30.672,84.639 159.95,10 	"/>
	<linearGradient id="SVGID_8_" gradientUnits="userSpaceOnUse" x1="231.8782" y1="285.616" x2="213.4639" y2="249.2851">
		<stop  offset="0" style="stop-color:#ED8200"/>
		<stop  offset="1" style="stop-color:#D15700"/>
	</linearGradient>
	<polygon fill="url(#SVGID_8_)" points="245.522,215.372 159.95,308.554 289.228,233.916 	"/>
	<linearGradient id="SVGID_9_" gradientUnits="userSpaceOnUse" x1="85.9216" y1="290.4619" x2="106.8242" y2="247.6613">
		<stop  offset="0" style="stop-color:#ED8200"/>
		<stop  offset="1" style="stop-color:#D15700"/>
	</linearGradient>
	<polygon fill="url(#SVGID_9_)" points="30.672,233.916 159.95,308.555 74.378,215.372 	"/>
	<linearGradient id="SVGID_10_" gradientUnits="userSpaceOnUse" x1="306.7845" y1="165.8867" x2="251.7802" y2="145.1792">
		<stop  offset="0" style="stop-color:#ED8200"/>
		<stop  offset="1" style="stop-color:#D46300"/>
	</linearGradient>
	<polygon fill="url(#SVGID_10_)" points="245.522,215.372 289.228,84.639 289.228,233.916 	"/>
	<linearGradient id="SVGID_11_" gradientUnits="userSpaceOnUse" x1="52.1724" y1="150.5611" x2="10.4714" y2="167.467">
		<stop  offset="0" style="stop-color:#F29B00"/>
		<stop  offset="1" style="stop-color:#ED8200"/>
	</linearGradient>
	<polygon fill="url(#SVGID_11_)" points="30.672,233.916 30.672,84.639 74.378,215.372 	"/>
	<g>
		<path fill="#EAD8B9" d="M153.218,178.188c1.795,0,3.075,0.208,3.842,0.624c0.767,0.417,1.282,1.051,1.544,1.906
			c0.262,0.854,0.395,1.97,0.395,3.351c0,1.379-0.143,2.486-0.427,3.317c-0.286,0.833-0.755,1.403-1.413,1.707
			c-0.964,0.526-2.323,0.789-4.074,0.789H127.4c-1.578,0-2.935-0.59-4.074-1.773c-1.139-1.182-1.707-2.563-1.707-4.139
			c0-2.365,0.821-4.543,2.463-6.536c1.643-1.992,3.623-3.701,5.946-5.124c2.321-1.423,4.641-2.826,6.964-4.205
			c2.32-1.379,4.303-2.945,5.945-4.696c1.643-1.751,2.464-3.615,2.464-5.584c0-0.395-0.155-0.954-0.459-1.675
			c-0.308-0.723-0.647-1.314-1.019-1.774c-0.372-0.459-0.952-0.887-1.741-1.28c-0.787-0.395-1.884-0.592-3.285-0.592
			s-2.617,0.516-3.645,1.544c-1.029,1.029-1.61,2.049-1.741,3.055l-0.262,1.511v0.395c0,0.964-0.034,1.686-0.099,2.168
			c-0.066,0.483-0.274,1.029-0.624,1.642c-0.658,1.051-2.365,1.576-5.124,1.576c-3.066,0-4.885-0.831-5.453-2.496
			c-0.22-0.7-0.328-1.817-0.328-3.351c0-4.553,1.63-8.638,4.893-12.252c3.263-3.613,7.532-5.419,12.81-5.419
			c5.278,0,9.559,1.83,12.844,5.487c3.284,3.657,4.927,7.828,4.927,12.514c0,2.496-0.548,4.861-1.643,7.095s-2.409,4.03-3.941,5.386
			c-3.241,2.891-6.133,4.841-8.671,5.847l-1.643,0.658v0.328H153.218z"/>
		<path fill="#EAD8B9" d="M166.619,147.147c1.27-1.773,3.055-3.262,5.354-4.467c2.299-1.203,4.96-1.806,7.981-1.806
			c3.023,0,5.66,0.592,7.917,1.774c2.254,1.182,4.029,2.651,5.32,4.402c1.292,1.751,2.333,3.81,3.12,6.175
			c1.314,3.941,1.971,8.124,1.971,12.548c0,7.927-1.709,14.212-5.124,18.854c-1.271,1.751-3.034,3.198-5.288,4.335
			c-2.257,1.139-4.873,1.709-7.851,1.709c-2.979,0-5.617-0.582-7.916-1.741c-2.299-1.161-4.096-2.595-5.388-4.303
			c-1.292-1.709-2.353-3.746-3.186-6.111c-1.27-3.766-1.904-8.035-1.904-12.809c0-4.38,0.513-8.124,1.543-11.234
			C164.199,151.364,165.348,148.922,166.619,147.147z M179.889,178.976c4.511,0,6.767-4.292,6.767-12.876v-0.394
			c0-8.804-2.234-13.206-6.701-13.206c-4.467,0-6.7,4.413-6.7,13.238C173.255,174.564,175.465,178.976,179.889,178.976z"/>
	</g>
	<g>
		<path fill="#EAD8B9" d="M236.247,133.553c1.05,1.636,1.661,2.89,1.832,3.761c0.171,0.873,0.047,1.604-0.375,2.194
			c-0.423,0.592-1.1,1.171-2.037,1.739c-0.939,0.569-1.779,0.893-2.515,0.972c-0.739,0.079-1.407-0.123-2.003-0.609
			c-0.928-0.679-1.905-1.834-2.929-3.456l-14.647-23.215c-0.878-1.391-1.225-2.805-1.046-4.241c0.179-1.43,0.807-2.43,1.878-3.006
			c1.601-0.86,3.523-0.94,5.77-0.246c2.244,0.696,4.486,1.784,6.731,3.274c2.246,1.49,4.481,2.989,6.705,4.5
			c2.226,1.511,4.383,2.66,6.467,3.44c2.083,0.782,3.764,0.801,5.037,0.064c0.255-0.148,0.525-0.49,0.814-1.024
			c0.287-0.536,0.471-1.049,0.552-1.542c0.08-0.491,0.021-1.15-0.18-1.974c-0.198-0.822-0.699-1.836-1.498-3.037
			c-0.797-1.198-1.816-2.05-3.056-2.557c-1.241-0.508-2.223-0.637-2.944-0.388l-1.122,0.319l-0.255,0.142
			c-0.623,0.347-1.11,0.579-1.46,0.697c-0.35,0.118-0.823,0.137-1.419,0.058c-1.055-0.184-2.357-1.459-3.9-3.817
			c-1.707-2.608-2.172-4.439-1.403-5.502c0.333-0.429,0.997-0.909,1.989-1.441c2.926-1.571,6.431-1.616,10.531-0.146
			c4.093,1.469,7.623,4.402,10.617,8.834c3.021,4.472,4.348,8.799,3.96,12.99c-0.393,4.245-2.087,7.289-5.1,9.101
			c-1.616,0.972-3.478,1.406-5.581,1.299c-2.108-0.107-4.061-0.584-5.852-1.43c-3.803-1.78-6.774-3.613-8.906-5.492l-1.382-1.211
			l-0.22,0.126L236.247,133.553z"/>
	</g>
	<g>
		<path fill="#EAD8B9" d="M100.957,103.465c3.317,1.941,4.993,5.175,5.017,9.718c0.024,4.579-1.251,9.025-3.838,13.332
			c-2.604,4.334-5.976,7.616-10.112,9.829c-4.144,2.218-7.917,2.287-11.3,0.209c-1.254-0.77-2.201-1.949-2.843-3.537
			c-0.641-1.581-0.969-2.954-0.983-4.121l-0.028-1.833c-0.359,0.186-0.814,0.397-1.369,0.634c-0.555,0.239-1.54,0.402-2.957,0.487
			c-1.416,0.087-2.654-0.194-3.711-0.842c-2.873-1.761-4.274-4.746-4.209-8.942c0.063-4.165,1.358-8.235,3.877-12.212
			c2.505-3.955,5.603-6.81,9.299-8.584c3.69-1.769,6.996-1.796,9.929-0.076c0.874,0.512,1.582,1.327,2.124,2.439
			c0.545,1.116,0.865,2.115,0.957,2.997l0.141,1.325c0.431-0.244,1.013-0.522,1.747-0.834c0.733-0.314,1.983-0.57,3.748-0.772
			C98.214,102.478,99.717,102.739,100.957,103.465z M90.945,125.441c1.302-0.53,2.51-1.713,3.625-3.546
			c1.112-1.829,1.587-3.41,1.426-4.747c-0.161-1.332-0.649-2.241-1.465-2.727c-0.815-0.485-1.862-0.476-3.14,0.026
			c-1.278,0.502-2.468,1.649-3.57,3.443c-1.106,1.8-1.605,3.389-1.495,4.765c0.11,1.379,0.582,2.32,1.415,2.824
			C88.574,125.984,89.642,125.971,90.945,125.441z M80.785,108.086c-0.584-0.348-1.347-0.327-2.289,0.058
			c-0.942,0.388-1.84,1.262-2.695,2.627c-0.857,1.369-1.244,2.531-1.157,3.485c0.086,0.956,0.429,1.615,1.028,1.976
			c0.6,0.362,1.389,0.342,2.365-0.061c0.975-0.401,1.878-1.27,2.707-2.605c0.826-1.33,1.187-2.49,1.078-3.478
			C81.715,109.1,81.37,108.434,80.785,108.086z"/>
	</g>
	<g>
		<path fill="#EAD8B9" d="M177.258,261.963c-1.119,0.602-2.29,0.903-3.521,0.903c-1.23,0-2.183-0.057-2.861-0.173
			c-0.678-0.116-1.195-0.248-1.549-0.399c-0.356-0.151-0.624-0.401-0.808-0.752c-0.181-0.4-0.249-1.026-0.202-1.885l1.258-23.018
			c0.04-0.732,0.105-1.283,0.197-1.652c0.092-0.371,0.344-0.8,0.756-1.29c0.729-0.887,2.646-1.333,5.743-1.333
			c3,0,4.813,0.43,5.435,1.284c0.325,0.49,0.497,0.934,0.518,1.339c0.021,0.402-0.015,0.986-0.11,1.747l-1.931,15.454l0.902-0.476
			c1.892-0.826,3.476-1.242,4.74-1.242c1.266,0,2.503,0.469,3.703,1.4c1.186,0.922,1.706,1.729,1.571,2.425
			c-0.134,0.691-1.039,1.438-2.704,2.241l-10.948,5.357L177.258,261.963z"/>
		<path fill="#EAD8B9" d="M140.954,261.998c-0.283,0.325-0.811,0.551-1.582,0.678c-0.77,0.127-1.79,0.19-3.06,0.19
			c-1.27,0-2.3-0.075-3.093-0.225c-0.793-0.15-1.384-0.394-1.771-0.731c-0.388-0.339-0.64-0.649-0.754-0.932
			c-0.115-0.283-0.224-0.699-0.328-1.249l-4.347-22.948c-0.235-1.24-0.183-2.165,0.159-2.766c0.346-0.605,0.971-1.006,1.876-1.205
			c0.909-0.198,2.065-0.297,3.468-0.297c1.402,0,2.527,0.083,3.37,0.248c0.843,0.165,1.495,0.363,1.959,0.593
			c0.461,0.229,0.815,0.555,1.056,0.979c0.354,0.55,0.596,1.384,0.728,2.496l0.664,5.595h18.592c3.202,0,5.091,0.56,5.658,1.671
			c0.216,0.463,0.314,1.082,0.295,1.853c-0.018,0.764-0.098,1.325-0.239,1.689l-5.389,12.916c-0.239,0.544-0.448,0.955-0.627,1.236
			c-0.178,0.28-0.538,0.547-1.079,0.802c-0.54,0.253-1.231,0.38-2.077,0.38c-0.847,0-1.777-0.08-2.794-0.241
			c-2.856-0.44-4.335-1.185-4.421-2.247c-0.031-0.381,0.073-0.883,0.311-1.51c0.039-0.049,0.057-0.086,0.055-0.109l3.278-9.408
			h-10.728l1.241,10.455c0.065,0.548,0.082,0.95,0.051,1.211C141.396,261.378,141.239,261.671,140.954,261.998z"/>
	</g>
	<g>
		<path fill="#EAD8B9" d="M121.947,37.729c0.906-0.609,1.692-0.969,2.364-1.081c0.672-0.113,1.165-0.152,1.48-0.117
			c0.314,0.036,0.533,0.1,0.653,0.194c0.121,0.095,0.144,0.282,0.071,0.562c-0.099,0.322-0.373,0.847-0.826,1.58l-12.297,19.895
			c-0.396,0.64-0.713,1.126-0.952,1.454c-0.24,0.33-0.598,0.724-1.073,1.181c-0.852,0.827-2.123,1.354-3.799,1.575
			c-1.616,0.213-2.369-0.031-2.266-0.726c0.076-0.4,0.211-0.772,0.406-1.12c0.194-0.346,0.51-0.852,0.949-1.515l8.839-13.367
			l-0.724,0.48c-1.43,0.858-2.487,1.341-3.162,1.445c-0.675,0.104-1.098-0.191-1.27-0.878c-0.169-0.678-0.042-1.313,0.377-1.909
			c0.415-0.591,1.267-1.294,2.551-2.11l8.543-5.466L121.947,37.729z"/>
		<path fill="#EAD8B9" d="M130.616,37.904c1.142-0.933,2.465-1.77,3.973-2.517c1.499-0.742,3.033-1.245,4.612-1.511
			c1.588-0.268,2.845-0.238,3.779,0.093c0.944,0.335,1.576,0.849,1.891,1.546c0.32,0.708,0.436,1.598,0.343,2.677
			c-0.159,1.848-0.762,3.946-1.835,6.312c-2.027,4.468-4.804,8.386-8.314,11.604c-1.347,1.243-2.927,2.343-4.734,3.289
			c-1.82,0.953-3.682,1.556-5.568,1.804c-1.876,0.246-3.312,0.071-4.309-0.513c-0.982-0.577-1.541-1.364-1.686-2.353
			c-0.142-0.973-0.026-2.15,0.339-3.522c0.597-2.127,1.705-4.52,3.289-7.152c1.4-2.326,2.836-4.295,4.319-5.939
			C128.163,40.114,129.459,38.848,130.616,37.904z M128.652,53.716c2.729-0.386,5.391-3.146,7.83-8l0.108-0.214
			c2.318-4.613,2.186-6.6-0.262-6.206c-2.429,0.392-4.855,2.775-7.424,7.39C126.141,51.652,125.997,54.091,128.652,53.716z"/>
	</g>
	<g>
		<path fill="#EAD8B9" d="M182.587,33.924c0.443-0.469,1.074-0.594,1.89-0.376c0.81,0.216,1.461,0.445,1.957,0.688
			c0.494,0.243,0.888,0.474,1.186,0.696c0.297,0.222,0.582,0.533,0.858,0.936c0.294,0.451,0.617,1.118,0.968,1.999l8.062,20.257
			c0.22,0.553,0.366,0.963,0.439,1.233c0.073,0.27,0.085,0.57,0.034,0.901c-0.082,0.598-0.905,0.783-2.486,0.553
			c-1.557-0.226-2.664-0.688-3.305-1.387c-0.355-0.402-0.614-0.76-0.778-1.077c-0.163-0.316-0.364-0.772-0.603-1.367l-5.368-13.382
			l-0.342,0.339c-0.795,0.543-1.591,0.732-2.388,0.562c-0.803-0.171-1.829-0.801-3.082-1.897c-1.264-1.107-2.043-2.016-2.329-2.721
			c-0.285-0.705-0.077-1.354,0.62-1.942l4.575-3.972L182.587,33.924z"/>
		<path fill="#EAD8B9" d="M214.446,58.08c0.825,0.145,1.45,0.351,1.877,0.617c0.425,0.266,0.778,0.618,1.059,1.058
			c0.28,0.439,0.551,0.996,0.814,1.673c0.262,0.675,0.409,1.207,0.441,1.595c0.031,0.388-0.069,0.637-0.304,0.743
			c-0.33,0.195-0.89,0.236-1.683,0.121l-12.502-1.817c-0.824-0.12-1.666-0.54-2.522-1.264c-0.864-0.729-1.466-1.523-1.805-2.376
			c-0.508-1.281-0.531-2.386-0.069-3.308c0.458-0.914,1.153-1.635,2.08-2.163c0.916-0.522,1.826-1.027,2.729-1.514
			c0.893-0.481,1.569-1.089,2.033-1.822c0.46-0.728,0.49-1.597,0.093-2.609c-0.079-0.203-0.268-0.508-0.565-0.915
			c-0.298-0.408-0.587-0.753-0.866-1.035c-0.28-0.282-0.658-0.573-1.135-0.872c-0.48-0.301-1.079-0.538-1.797-0.711
			c-0.725-0.174-1.25-0.053-1.574,0.363c-0.325,0.419-0.418,0.889-0.276,1.408l0.178,0.771l0.083,0.21
			c0.202,0.512,0.336,0.891,0.402,1.14c0.066,0.249,0.072,0.515,0.016,0.801c-0.125,0.485-0.918,0.574-2.394,0.263
			c-1.667-0.351-2.849-1.016-3.526-1.994c-0.274-0.41-0.578-1.036-0.913-1.878c-0.993-2.503-0.965-4.527,0.076-6.047
			c1.023-1.496,2.956-1.851,5.748-1.102c2.714,0.729,5.229,2.246,7.565,4.531c2.293,2.243,3.878,4.521,4.787,6.86
			c0.483,1.244,0.687,2.367,0.613,3.374c-0.075,1.012-0.338,1.789-0.791,2.329c-0.965,1.168-1.963,1.904-2.993,2.198l-0.672,0.195
			l0.066,0.169L214.446,58.08z"/>
	</g>
	<g>
		<path fill="#EAD8B9" d="M43.942,202.672c-0.601-0.231-1.072-0.83-1.409-1.799c-0.339-0.971-0.572-1.786-0.7-2.443
			c-0.128-0.658-0.202-1.204-0.222-1.639c-0.02-0.436,0.035-0.9,0.165-1.397c0.155-0.539,0.453-1.209,0.894-2.005l9.629-17.383
			c0.25-0.451,0.444-0.765,0.583-0.942c0.139-0.177,0.328-0.288,0.568-0.333c0.427-0.092,0.953,0.843,1.577,2.796
			c0.602,1.882,0.839,3.3,0.713,4.263c-0.079,0.538-0.177,0.952-0.294,1.245c-0.117,0.293-0.302,0.678-0.555,1.157l-5.873,11.086
			l0.407,0.215c0.773,0.597,1.306,1.338,1.602,2.223c0.296,0.884,0.41,2.178,0.343,3.891c-0.068,1.717-0.252,2.872-0.553,3.466
			c-0.303,0.596-0.821,0.703-1.558,0.317l-5.233-2.643L43.942,202.672z"/>
		<path fill="#EAD8B9" d="M40.835,152.138c1.232-1.901,2.64-2.26,4.219-1.112c1.554,1.129,2.856,3.36,3.917,6.68
			c1.326,4.149,1.857,8.037,1.604,11.714c-0.255,3.699-1.121,6.866-2.618,9.524c-2.216,3.934-4.706,5.558-7.483,4.773
			c-2.858-0.808-5.421-4.383-7.659-10.799c-0.457-1.31-0.727-2.372-0.809-3.181c-0.082-0.81-0.03-1.521,0.156-2.13
			c0.186-0.609,0.474-1.218,0.865-1.824c0.389-0.604,0.726-0.993,1.012-1.172c0.285-0.179,0.528-0.239,0.729-0.185
			c0.201,0.057,0.404,0.265,0.608,0.628c0.278,0.46,0.654,1.387,1.13,2.783c0.474,1.39,1.022,2.587,1.642,3.59
			c0.617,0.997,1.174,1.653,1.674,1.969c1.004,0.606,1.76,0.731,2.275,0.379l0.338-0.185c-0.615-0.865-1.129-1.911-1.54-3.133
			c-1.108-3.293-1.651-6.794-1.624-10.47C39.297,156.319,39.822,153.701,40.835,152.138z M46.227,162.547
			c-0.815-2.505-1.62-3.125-2.414-1.836c-0.275,0.446-0.437,1.151-0.487,2.119c-0.05,0.967,0.134,2.085,0.551,3.347
			c0.415,1.257,0.842,2.035,1.28,2.334c0.436,0.298,0.764,0.259,0.985-0.115c0.221-0.374,0.376-0.699,0.465-0.975
			c0.09-0.276,0.166-0.644,0.231-1.102C46.957,165.42,46.754,164.166,46.227,162.547z"/>
	</g>
	<g>
		<path fill="#EAD8B9" d="M286.312,176.809c0.037,1.437-0.124,2.671-0.482,3.695c-0.357,1.022-0.667,1.76-0.93,2.218
			c-0.263,0.456-0.488,0.763-0.676,0.92c-0.188,0.155-0.407,0.153-0.657-0.007c-0.275-0.206-0.642-0.697-1.099-1.473l-9.97-16.923
			c-0.259-0.439-0.444-0.791-0.557-1.056c-0.113-0.265-0.212-0.666-0.298-1.201c-0.157-0.95,0.089-2.438,0.742-4.476
			c0.636-1.986,1.18-2.984,1.63-2.988c0.255,0.018,0.461,0.119,0.62,0.302c0.159,0.184,0.377,0.5,0.655,0.948l6.439,10.411
			l-0.006-1.013c0.073-1.99,0.272-3.468,0.598-4.441c0.327-0.975,0.89-1.649,1.694-2.023c0.811-0.376,1.394-0.296,1.745,0.244
			c0.352,0.542,0.529,1.755,0.527,3.637l0.037,13.008L286.312,176.809z"/>
		<path fill="#EAD8B9" d="M265.971,197.166c-1.171-2.313-1.713-5.351-1.638-9.135c0.074-3.777,0.603-7.201,1.594-10.298
			c1-3.126,2.266-5.299,3.812-6.513c1.57-1.234,3.001-0.761,4.287,1.461c0.484,0.835,0.847,1.976,1.089,3.425
			c0.243,1.453,0.365,2.684,0.362,3.691l-0.001,1.588c0.145-0.099,0.329-0.204,0.554-0.314c0.225-0.113,0.625-0.085,1.201,0.085
			c0.581,0.169,1.09,0.632,1.526,1.391c1.2,2.085,1.791,5.032,1.758,8.826c-0.032,3.802-0.597,7.275-1.686,10.389
			c-1.08,3.086-2.398,4.996-3.943,5.745c-1.521,0.735-2.849-0.033-3.988-2.272c-0.335-0.659-0.601-1.547-0.797-2.658
			c-0.196-1.109-0.306-2.06-0.331-2.857l-0.037-1.193c-0.168,0.123-0.394,0.244-0.678,0.362c-0.283,0.119-0.759,0.079-1.426-0.115
			C266.967,198.578,266.415,198.042,265.971,197.166z M270.005,180.398c-0.494,0.229-0.96,1.018-1.399,2.364
			c-0.437,1.341-0.635,2.584-0.595,3.735c0.04,1.152,0.208,2.01,0.505,2.572c0.298,0.564,0.692,0.753,1.181,0.563
			c0.492-0.191,0.96-0.954,1.403-2.29c0.446-1.343,0.655-2.614,0.627-3.809c-0.027-1.193-0.198-2.071-0.51-2.637
			C270.906,180.333,270.501,180.168,270.005,180.398z M273.76,197.315c0.231,0.436,0.539,0.581,0.923,0.436
			c0.386-0.146,0.758-0.742,1.117-1.789c0.36-1.052,0.526-2.015,0.496-2.888c-0.03-0.873-0.166-1.529-0.408-1.97
			c-0.242-0.44-0.561-0.576-0.959-0.412c-0.395,0.163-0.763,0.752-1.106,1.765c-0.341,1.008-0.495,1.961-0.46,2.858
			C273.398,196.215,273.529,196.881,273.76,197.315z"/>
	</g>
	<g>
		<path fill="#EAD8B9" d="M250.447,250.151c0.275,0.224,0.389,0.558,0.34,1.003c-0.049,0.451-0.229,1.033-0.544,1.754
			c-0.322,0.736-0.673,1.327-1.05,1.765c-0.383,0.444-0.82,0.742-1.31,0.893c-0.495,0.151-0.92,0.226-1.275,0.223
			c-0.355-0.004-0.859-0.045-1.512-0.126l-23.52-2.704c-1.376-0.17-2.277-0.427-2.69-0.766c-0.411-0.339-0.466-0.781-0.171-1.321
			c0.292-0.533,0.802-1.164,1.523-1.886c0.705-0.707,1.335-1.243,1.897-1.619c0.554-0.37,1.044-0.639,1.47-0.809
			c0.423-0.17,0.883-0.267,1.383-0.294c0.664-0.052,1.539,0.005,2.627,0.171l4.272,0.651l6.297-7.753
			c0.925-1.139,1.913-1.701,2.981-1.723c0.439-0.003,0.976,0.06,1.61,0.185c0.631,0.125,1.08,0.239,1.349,0.345l10.172,4.159
			c0.458,0.194,0.801,0.351,1.029,0.475c0.229,0.124,0.412,0.32,0.553,0.59c0.141,0.271,0.134,0.587-0.024,0.948
			c-0.159,0.366-0.415,0.757-0.77,1.178c-1.013,1.216-2.073,1.757-3.153,1.579c-0.387-0.064-0.861-0.215-1.425-0.455
			c-0.04-0.027-0.071-0.043-0.095-0.047l-8.08-3.27l-3.324,4.872l9.359,1.293c0.586,0.089,1.009,0.17,1.272,0.244
			C249.903,249.778,250.171,249.927,250.447,250.151z"/>
	</g>
	<g>
		<g>
			<path fill="#EAD8B9" d="M74.107,239.764c1.876-0.206,4.002,0.363,6.464,1.777c2.637,1.515,4.988,3.575,7.027,6.251
				c2.823,3.706,4.041,6.789,3.405,8.995c-0.656,2.276-2.787,3.407-6.265,3.341c-4.789-0.092-9.475-1.929-13.842-5.203
				c-3.884-2.912-6.62-6.519-8.349-10.651c-0.325-0.776-0.481-1.338-0.475-1.699c0.007-0.357,0.135-0.608,0.386-0.755
				c0.252-0.147,0.609-0.245,1.073-0.294c0.467-0.049,0.863-0.04,1.186,0.028c0.325,0.069,0.596,0.165,0.812,0.287
				c0.217,0.124,0.423,0.313,0.618,0.567c0.271,0.336,0.615,0.929,1.039,1.794c0.436,0.889,0.996,1.765,1.688,2.629
				c0.713,0.89,1.403,1.602,2.065,2.124c1.386,1.076,2.507,1.749,3.331,1.988l0.547,0.185c-0.889-0.968-1.579-1.915-2.083-2.844
				c-1.282-2.368-1.711-4.322-1.359-5.94C71.716,240.774,72.618,239.927,74.107,239.764z M82.035,248.254
				c-1.334-1.973-2.678-2.868-4.071-2.768c-0.473,0.034-0.78,0.274-0.926,0.724c-0.146,0.453,0.072,1.158,0.669,2.133
				c0.615,1.003,1.301,1.783,2.055,2.326c0.771,0.555,1.378,0.829,1.812,0.815c0.437-0.014,0.749-0.061,0.934-0.14
				c0.186-0.079,0.352-0.223,0.498-0.432C83.279,250.498,82.945,249.599,82.035,248.254z"/>
		</g>
		<path fill="#EAD8B9" d="M89.064,239.472l16.825,18.88c0.931,1.045,0.011,1.89-2.026,1.854l0,0
			c-1.994-0.035-4.267-0.904-5.073-1.909l-14.695-18.32c-0.465-0.58,0.229-1.163,1.553-1.307l0,0
			C86.994,238.525,88.536,238.879,89.064,239.472z"/>
	</g>
	<g>
		<path fill="#FFFFFF" d="M153.218,180.521c1.795,0,3.075,0.208,3.842,0.624c0.767,0.417,1.282,1.051,1.544,1.906
			c0.262,0.854,0.395,1.97,0.395,3.351c0,1.379-0.143,2.486-0.427,3.317c-0.286,0.833-0.755,1.403-1.413,1.707
			c-0.964,0.526-2.323,0.789-4.074,0.789H127.4c-1.578,0-2.935-0.59-4.074-1.773c-1.139-1.182-1.707-2.563-1.707-4.139
			c0-2.365,0.821-4.543,2.463-6.536c1.643-1.992,3.623-3.701,5.946-5.124c2.321-1.423,4.641-2.826,6.964-4.205
			c2.32-1.379,4.303-2.945,5.945-4.696c1.643-1.751,2.464-3.615,2.464-5.584c0-0.395-0.155-0.954-0.459-1.675
			c-0.308-0.723-0.647-1.314-1.019-1.774c-0.372-0.459-0.952-0.887-1.741-1.28c-0.787-0.395-1.884-0.592-3.285-0.592
			s-2.617,0.516-3.645,1.544c-1.029,1.029-1.61,2.049-1.741,3.055l-0.262,1.511v0.395c0,0.964-0.034,1.685-0.099,2.168
			c-0.066,0.483-0.274,1.029-0.624,1.642c-0.658,1.051-2.365,1.576-5.124,1.576c-3.066,0-4.885-0.831-5.453-2.496
			c-0.22-0.7-0.328-1.817-0.328-3.351c0-4.553,1.63-8.638,4.893-12.252c3.263-3.613,7.532-5.419,12.81-5.419
			c5.278,0,9.559,1.83,12.844,5.487c3.284,3.657,4.927,7.828,4.927,12.514c0,2.496-0.548,4.861-1.643,7.095s-2.409,4.03-3.941,5.386
			c-3.241,2.891-6.133,4.841-8.671,5.847l-1.643,0.658v0.328H153.218z"/>
		<path fill="#FFFFFF" d="M166.619,149.48c1.27-1.773,3.055-3.262,5.354-4.467c2.299-1.203,4.96-1.806,7.981-1.806
			c3.023,0,5.66,0.592,7.917,1.774c2.254,1.182,4.029,2.651,5.32,4.402c1.292,1.751,2.333,3.81,3.12,6.175
			c1.314,3.941,1.971,8.124,1.971,12.548c0,7.927-1.709,14.212-5.124,18.854c-1.271,1.751-3.034,3.198-5.288,4.335
			c-2.257,1.139-4.873,1.709-7.851,1.709c-2.979,0-5.617-0.582-7.916-1.741c-2.299-1.161-4.096-2.595-5.388-4.303
			c-1.292-1.709-2.353-3.746-3.186-6.111c-1.27-3.766-1.904-8.035-1.904-12.809c0-4.38,0.513-8.124,1.543-11.234
			C164.199,153.697,165.348,151.254,166.619,149.48z M179.889,181.309c4.511,0,6.767-4.293,6.767-12.876v-0.394
			c0-8.804-2.234-13.206-6.701-13.206c-4.467,0-6.7,4.413-6.7,13.238C173.255,176.897,175.465,181.309,179.889,181.309z"/>
	</g>
	<g>
		<path fill="#FFFED2" d="M234.38,134.113c1.05,1.636,1.661,2.89,1.832,3.761c0.171,0.873,0.047,1.604-0.375,2.194
			c-0.423,0.592-1.1,1.171-2.037,1.739c-0.939,0.569-1.779,0.893-2.515,0.972c-0.739,0.079-1.407-0.123-2.003-0.609
			c-0.928-0.679-1.905-1.834-2.929-3.456l-14.647-23.215c-0.878-1.391-1.225-2.805-1.046-4.241c0.179-1.43,0.807-2.43,1.878-3.006
			c1.601-0.86,3.523-0.94,5.77-0.246c2.244,0.696,4.486,1.784,6.731,3.274c2.246,1.49,4.481,2.989,6.705,4.5
			c2.226,1.511,4.383,2.66,6.467,3.44c2.083,0.782,3.764,0.801,5.037,0.064c0.255-0.148,0.525-0.49,0.814-1.024
			c0.287-0.536,0.471-1.049,0.552-1.542c0.08-0.491,0.021-1.15-0.18-1.974c-0.198-0.822-0.699-1.836-1.498-3.037
			c-0.797-1.198-1.816-2.05-3.056-2.557c-1.241-0.508-2.223-0.637-2.944-0.388l-1.122,0.319l-0.255,0.142
			c-0.623,0.347-1.11,0.579-1.46,0.697c-0.35,0.118-0.823,0.137-1.419,0.058c-1.055-0.184-2.357-1.459-3.9-3.817
			c-1.707-2.608-2.172-4.439-1.403-5.502c0.333-0.429,0.997-0.909,1.989-1.441c2.926-1.571,6.431-1.616,10.531-0.146
			c4.093,1.469,7.623,4.402,10.617,8.834c3.021,4.472,4.348,8.799,3.96,12.99c-0.393,4.245-2.087,7.289-5.1,9.101
			c-1.616,0.972-3.478,1.406-5.581,1.299c-2.108-0.107-4.061-0.584-5.852-1.43c-3.803-1.78-6.774-3.613-8.906-5.492l-1.382-1.211
			l-0.22,0.126L234.38,134.113z"/>
	</g>
	<g>
		<path fill="#FFFFFF" d="M102.932,105.146c3.317,1.941,4.993,5.175,5.017,9.718c0.024,4.579-1.251,9.025-3.838,13.332
			c-2.604,4.334-5.976,7.616-10.112,9.829c-4.144,2.218-7.917,2.287-11.3,0.209c-1.254-0.77-2.201-1.949-2.844-3.537
			c-0.641-1.581-0.969-2.954-0.983-4.121l-0.028-1.833c-0.359,0.186-0.814,0.397-1.369,0.634c-0.555,0.239-1.54,0.402-2.957,0.487
			c-1.416,0.087-2.654-0.194-3.711-0.842c-2.873-1.761-4.274-4.746-4.209-8.942c0.063-4.165,1.358-8.235,3.877-12.212
			c2.505-3.955,5.603-6.81,9.299-8.584c3.69-1.769,6.996-1.796,9.929-0.076c0.874,0.512,1.582,1.327,2.124,2.439
			c0.545,1.116,0.865,2.115,0.957,2.997l0.141,1.325c0.431-0.244,1.013-0.522,1.747-0.834c0.733-0.314,1.983-0.57,3.748-0.772
			C100.189,104.159,101.691,104.42,102.932,105.146z M92.92,127.122c1.302-0.53,2.51-1.713,3.625-3.546
			c1.112-1.829,1.587-3.41,1.426-4.747c-0.161-1.332-0.649-2.241-1.465-2.727c-0.815-0.485-1.862-0.476-3.14,0.026
			c-1.278,0.502-2.468,1.649-3.57,3.443c-1.106,1.8-1.605,3.389-1.495,4.765c0.11,1.379,0.582,2.32,1.415,2.824
			C90.549,127.665,91.617,127.653,92.92,127.122z M82.76,109.767c-0.584-0.348-1.347-0.327-2.289,0.058
			c-0.942,0.388-1.84,1.262-2.695,2.627c-0.857,1.369-1.244,2.531-1.157,3.485c0.086,0.956,0.429,1.615,1.028,1.976
			c0.6,0.362,1.389,0.342,2.365-0.061c0.975-0.401,1.878-1.27,2.707-2.605c0.826-1.33,1.187-2.49,1.078-3.478
			C83.689,110.781,83.344,110.115,82.76,109.767z"/>
	</g>
	<g>
		<linearGradient id="SVGID_12_" gradientUnits="userSpaceOnUse" x1="179.7126" y1="330.5638" x2="179.7126" y2="211.9805">
			<stop  offset="0" style="stop-color:#FFFECF"/>
			<stop  offset="1" style="stop-color:#F7C07C"/>
		</linearGradient>
		<path fill="url(#SVGID_12_)" d="M177.258,259.63c-1.119,0.602-2.29,0.903-3.521,0.903c-1.23,0-2.183-0.057-2.861-0.173
			c-0.678-0.116-1.195-0.248-1.549-0.399c-0.356-0.151-0.624-0.401-0.808-0.752c-0.181-0.4-0.249-1.026-0.202-1.885l1.258-23.018
			c0.04-0.732,0.105-1.283,0.197-1.652c0.092-0.371,0.344-0.8,0.756-1.29c0.729-0.887,2.646-1.333,5.743-1.333
			c3,0,4.813,0.43,5.435,1.284c0.325,0.49,0.497,0.934,0.518,1.339c0.021,0.402-0.015,0.986-0.11,1.747l-1.931,15.454l0.902-0.476
			c1.892-0.826,3.476-1.242,4.74-1.242c1.266,0,2.503,0.469,3.703,1.4c1.186,0.922,1.706,1.729,1.571,2.425
			c-0.134,0.691-1.039,1.438-2.704,2.241l-10.948,5.357L177.258,259.63z"/>
		<linearGradient id="SVGID_13_" gradientUnits="userSpaceOnUse" x1="144.8605" y1="330.5636" x2="144.8605" y2="211.9802">
			<stop  offset="0" style="stop-color:#FFFECF"/>
			<stop  offset="1" style="stop-color:#F7C07C"/>
		</linearGradient>
		<path fill="url(#SVGID_13_)" d="M140.954,259.665c-0.283,0.325-0.811,0.551-1.582,0.678c-0.77,0.127-1.79,0.19-3.06,0.19
			c-1.27,0-2.3-0.075-3.093-0.225c-0.793-0.15-1.384-0.394-1.771-0.731c-0.388-0.339-0.64-0.649-0.754-0.932
			c-0.115-0.283-0.224-0.699-0.328-1.249l-4.347-22.948c-0.235-1.24-0.183-2.165,0.159-2.766c0.346-0.605,0.971-1.006,1.876-1.205
			c0.909-0.198,2.065-0.297,3.468-0.297c1.402,0,2.527,0.083,3.37,0.248c0.843,0.165,1.495,0.363,1.959,0.593
			c0.461,0.229,0.815,0.555,1.056,0.979c0.354,0.55,0.596,1.384,0.728,2.496l0.664,5.595h18.592c3.202,0,5.091,0.56,5.658,1.671
			c0.216,0.463,0.314,1.082,0.295,1.853c-0.018,0.764-0.098,1.325-0.239,1.689l-5.389,12.916c-0.239,0.544-0.448,0.955-0.627,1.236
			c-0.178,0.28-0.538,0.547-1.079,0.802c-0.54,0.253-1.231,0.38-2.077,0.38c-0.847,0-1.777-0.08-2.794-0.241
			c-2.856-0.44-4.335-1.185-4.421-2.247c-0.031-0.381,0.073-0.883,0.311-1.51c0.039-0.049,0.057-0.086,0.055-0.109l3.278-9.408
			h-10.728l1.241,10.455c0.065,0.548,0.082,0.95,0.051,1.211C141.396,259.045,141.239,259.338,140.954,259.665z"/>
	</g>
	<g>
		<path fill="#FFFFFF" d="M122.88,38.598c0.906-0.609,1.692-0.969,2.364-1.081c0.672-0.113,1.165-0.152,1.48-0.117
			c0.314,0.036,0.533,0.1,0.653,0.194c0.121,0.095,0.144,0.282,0.071,0.562c-0.099,0.322-0.373,0.847-0.826,1.58l-12.297,19.895
			c-0.396,0.64-0.713,1.125-0.952,1.454c-0.24,0.33-0.598,0.724-1.073,1.181c-0.852,0.827-2.123,1.354-3.799,1.574
			c-1.616,0.213-2.369-0.031-2.266-0.726c0.076-0.4,0.211-0.772,0.406-1.12c0.194-0.346,0.51-0.852,0.949-1.515l8.839-13.367
			l-0.724,0.48c-1.43,0.858-2.487,1.341-3.162,1.445c-0.675,0.104-1.098-0.191-1.27-0.878c-0.169-0.678-0.042-1.313,0.377-1.909
			c0.415-0.591,1.267-1.294,2.551-2.11l8.543-5.466L122.88,38.598z"/>
		<path fill="#FFFFFF" d="M131.549,38.773c1.142-0.933,2.465-1.77,3.973-2.517c1.499-0.742,3.033-1.245,4.612-1.511
			c1.588-0.268,2.845-0.238,3.779,0.093c0.944,0.335,1.576,0.849,1.891,1.546c0.32,0.708,0.436,1.598,0.343,2.677
			c-0.159,1.848-0.762,3.946-1.835,6.312c-2.027,4.468-4.804,8.386-8.314,11.604c-1.347,1.243-2.927,2.343-4.734,3.289
			c-1.82,0.953-3.682,1.557-5.568,1.804c-1.876,0.246-3.312,0.071-4.309-0.513c-0.982-0.577-1.541-1.364-1.686-2.353
			c-0.142-0.973-0.026-2.15,0.339-3.522c0.597-2.127,1.705-4.52,3.289-7.152c1.4-2.326,2.836-4.295,4.319-5.939
			C129.097,40.984,130.392,39.718,131.549,38.773z M129.585,54.585c2.729-0.386,5.391-3.146,7.83-8l0.108-0.214
			c2.318-4.613,2.186-6.6-0.262-6.206c-2.429,0.392-4.855,2.775-7.424,7.39C127.074,52.521,126.931,54.961,129.585,54.585z"/>
	</g>
	<g>
		<path fill="#FFFED2" d="M181.747,35.445c0.443-0.469,1.074-0.594,1.89-0.376c0.81,0.216,1.461,0.445,1.957,0.688
			c0.494,0.243,0.888,0.474,1.186,0.696c0.297,0.222,0.582,0.533,0.858,0.936c0.294,0.451,0.617,1.118,0.968,1.999l8.062,20.257
			c0.22,0.553,0.366,0.963,0.439,1.233s0.085,0.57,0.034,0.901c-0.082,0.598-0.905,0.783-2.486,0.553
			c-1.557-0.226-2.664-0.688-3.305-1.387c-0.355-0.402-0.614-0.76-0.778-1.077c-0.163-0.316-0.364-0.772-0.603-1.367l-5.368-13.382
			l-0.342,0.339c-0.795,0.543-1.591,0.732-2.388,0.562c-0.803-0.171-1.829-0.801-3.082-1.897c-1.264-1.107-2.043-2.016-2.329-2.721
			c-0.285-0.705-0.077-1.354,0.62-1.942l4.575-3.972L181.747,35.445z"/>
		<path fill="#FFFED2" d="M213.606,59.601c0.825,0.145,1.45,0.351,1.877,0.617c0.425,0.266,0.778,0.618,1.059,1.058
			c0.28,0.439,0.551,0.996,0.814,1.673c0.262,0.675,0.409,1.207,0.441,1.595c0.031,0.388-0.069,0.637-0.304,0.743
			c-0.33,0.195-0.89,0.236-1.683,0.121l-12.502-1.817c-0.824-0.12-1.666-0.54-2.522-1.264c-0.864-0.729-1.466-1.523-1.805-2.376
			c-0.508-1.281-0.531-2.386-0.069-3.308c0.458-0.914,1.153-1.635,2.08-2.163c0.916-0.522,1.826-1.027,2.729-1.514
			c0.893-0.481,1.569-1.089,2.033-1.822c0.46-0.728,0.49-1.597,0.093-2.609c-0.079-0.203-0.268-0.508-0.565-0.915
			c-0.298-0.408-0.587-0.753-0.866-1.035c-0.28-0.282-0.658-0.573-1.135-0.872c-0.48-0.301-1.079-0.538-1.797-0.711
			c-0.725-0.174-1.25-0.053-1.574,0.363c-0.325,0.419-0.418,0.889-0.276,1.408l0.178,0.771l0.083,0.21
			c0.202,0.512,0.336,0.891,0.402,1.14c0.066,0.249,0.072,0.515,0.016,0.801c-0.125,0.485-0.918,0.574-2.394,0.263
			c-1.667-0.351-2.849-1.016-3.526-1.994c-0.274-0.41-0.578-1.036-0.913-1.878c-0.993-2.503-0.965-4.527,0.076-6.047
			c1.023-1.496,2.956-1.851,5.748-1.102c2.715,0.729,5.229,2.246,7.565,4.531c2.293,2.243,3.878,4.521,4.787,6.86
			c0.483,1.244,0.687,2.367,0.613,3.374c-0.075,1.012-0.338,1.789-0.791,2.329c-0.965,1.168-1.963,1.904-2.993,2.198l-0.672,0.195
			l0.066,0.169L213.606,59.601z"/>
	</g>
	<g>
		<linearGradient id="SVGID_14_" gradientUnits="userSpaceOnUse" x1="65.1984" y1="172.0453" x2="15.9279" y2="246.6976">
			<stop  offset="0" style="stop-color:#FFFECF"/>
			<stop  offset="1" style="stop-color:#F7C07C"/>
		</linearGradient>
		<path fill="url(#SVGID_14_)" d="M45.704,202.205c-0.601-0.231-1.072-0.83-1.409-1.799c-0.339-0.971-0.572-1.786-0.7-2.443
			c-0.128-0.658-0.202-1.204-0.222-1.639c-0.02-0.436,0.035-0.9,0.165-1.397c0.155-0.539,0.453-1.209,0.894-2.005l9.629-17.383
			c0.25-0.451,0.444-0.765,0.583-0.942c0.139-0.177,0.328-0.288,0.568-0.333c0.427-0.092,0.953,0.843,1.577,2.796
			c0.602,1.882,0.839,3.3,0.713,4.263c-0.079,0.538-0.177,0.952-0.294,1.245c-0.117,0.293-0.302,0.678-0.555,1.157l-5.873,11.086
			l0.407,0.215c0.773,0.597,1.306,1.338,1.602,2.223c0.296,0.884,0.41,2.178,0.343,3.891c-0.068,1.717-0.252,2.872-0.553,3.466
			c-0.303,0.596-0.821,0.703-1.558,0.317l-5.233-2.643L45.704,202.205z"/>
		<linearGradient id="SVGID_15_" gradientUnits="userSpaceOnUse" x1="48.7516" y1="161.1904" x2="-0.5188" y2="235.8426">
			<stop  offset="0" style="stop-color:#FFFECF"/>
			<stop  offset="1" style="stop-color:#F7C07C"/>
		</linearGradient>
		<path fill="url(#SVGID_15_)" d="M42.597,151.672c1.232-1.901,2.64-2.26,4.219-1.112c1.554,1.13,2.856,3.36,3.917,6.68
			c1.326,4.149,1.857,8.037,1.604,11.714c-0.255,3.699-1.121,6.866-2.618,9.524c-2.216,3.934-4.706,5.558-7.483,4.773
			c-2.858-0.808-5.421-4.383-7.659-10.799c-0.457-1.31-0.727-2.372-0.809-3.181c-0.082-0.81-0.03-1.521,0.156-2.13
			c0.186-0.609,0.474-1.218,0.865-1.824c0.389-0.604,0.726-0.993,1.012-1.172c0.285-0.179,0.528-0.239,0.729-0.185
			c0.201,0.057,0.404,0.265,0.608,0.628c0.278,0.46,0.654,1.387,1.13,2.783c0.474,1.39,1.022,2.587,1.642,3.59
			c0.617,0.997,1.174,1.653,1.674,1.969c1.004,0.606,1.76,0.731,2.275,0.379l0.338-0.185c-0.615-0.865-1.129-1.911-1.54-3.133
			c-1.108-3.293-1.651-6.794-1.624-10.47C41.06,155.853,41.585,153.235,42.597,151.672z M47.989,162.081
			c-0.815-2.505-1.62-3.125-2.414-1.836c-0.275,0.446-0.437,1.151-0.487,2.119c-0.05,0.967,0.134,2.085,0.551,3.347
			c0.415,1.257,0.842,2.035,1.28,2.334c0.436,0.298,0.764,0.259,0.985-0.115c0.221-0.374,0.376-0.699,0.465-0.975
			c0.09-0.276,0.166-0.644,0.231-1.102C48.72,164.954,48.516,163.7,47.989,162.081z"/>
	</g>
	<g>
		<linearGradient id="SVGID_16_" gradientUnits="userSpaceOnUse" x1="297.1666" y1="191.9915" x2="265.4394" y2="143.0943">
			<stop  offset="0" style="stop-color:#FFFECF"/>
			<stop  offset="1" style="stop-color:#F7C07C"/>
		</linearGradient>
		<path fill="url(#SVGID_16_)" d="M284.819,175.316c0.037,1.437-0.124,2.671-0.482,3.695c-0.357,1.022-0.667,1.76-0.93,2.218
			c-0.263,0.456-0.488,0.763-0.676,0.92c-0.188,0.155-0.407,0.153-0.657-0.007c-0.275-0.206-0.642-0.697-1.099-1.473l-9.97-16.923
			c-0.259-0.439-0.444-0.791-0.557-1.056c-0.113-0.265-0.212-0.666-0.298-1.201c-0.157-0.95,0.089-2.438,0.742-4.476
			c0.636-1.986,1.18-2.984,1.63-2.988c0.255,0.018,0.461,0.119,0.62,0.302c0.159,0.184,0.377,0.5,0.655,0.948l6.439,10.411
			l-0.006-1.013c0.073-1.99,0.272-3.469,0.598-4.441c0.327-0.975,0.89-1.649,1.694-2.023c0.811-0.376,1.394-0.296,1.745,0.244
			c0.352,0.542,0.529,1.755,0.527,3.637l0.037,13.008L284.819,175.316z"/>
		<linearGradient id="SVGID_17_" gradientUnits="userSpaceOnUse" x1="280.7803" y1="202.6238" x2="249.053" y2="153.7263">
			<stop  offset="0" style="stop-color:#FFFECF"/>
			<stop  offset="1" style="stop-color:#F7C07C"/>
		</linearGradient>
		<path fill="url(#SVGID_17_)" d="M264.478,195.673c-1.171-2.313-1.713-5.351-1.638-9.135c0.074-3.777,0.603-7.201,1.594-10.298
			c1-3.126,2.266-5.299,3.812-6.513c1.57-1.234,3.001-0.761,4.287,1.461c0.484,0.835,0.847,1.976,1.089,3.425
			c0.243,1.453,0.365,2.684,0.362,3.691l-0.001,1.588c0.145-0.099,0.329-0.204,0.554-0.314c0.225-0.113,0.625-0.085,1.201,0.085
			c0.581,0.169,1.09,0.632,1.526,1.391c1.2,2.085,1.791,5.032,1.758,8.826c-0.032,3.802-0.597,7.275-1.686,10.389
			c-1.08,3.086-2.398,4.996-3.943,5.745c-1.521,0.735-2.849-0.033-3.988-2.272c-0.335-0.659-0.601-1.547-0.797-2.658
			c-0.196-1.109-0.306-2.06-0.331-2.857l-0.037-1.193c-0.168,0.123-0.394,0.244-0.678,0.362c-0.283,0.119-0.759,0.079-1.426-0.115
			C265.474,197.085,264.922,196.549,264.478,195.673z M268.512,178.905c-0.494,0.229-0.96,1.018-1.399,2.364
			c-0.437,1.341-0.635,2.584-0.595,3.735c0.04,1.152,0.208,2.01,0.505,2.572c0.298,0.564,0.692,0.753,1.181,0.563
			c0.492-0.191,0.96-0.954,1.403-2.29c0.446-1.343,0.655-2.614,0.627-3.809c-0.027-1.193-0.198-2.071-0.51-2.637
			C269.413,178.84,269.008,178.675,268.512,178.905z M272.267,195.822c0.231,0.436,0.539,0.58,0.923,0.436
			c0.386-0.146,0.758-0.742,1.117-1.789c0.36-1.052,0.526-2.015,0.496-2.888c-0.03-0.873-0.166-1.529-0.408-1.97
			c-0.242-0.44-0.561-0.576-0.959-0.412c-0.395,0.163-0.763,0.752-1.106,1.765c-0.341,1.008-0.495,1.961-0.46,2.858
			C271.905,194.722,272.036,195.388,272.267,195.822z"/>
	</g>
	<g>
		<linearGradient id="SVGID_18_" gradientUnits="userSpaceOnUse" x1="288.688" y1="274.0592" x2="205.4507" y2="232.6272">
			<stop  offset="0" style="stop-color:#FFFECF"/>
			<stop  offset="1" style="stop-color:#F7C07C"/>
		</linearGradient>
		<path fill="url(#SVGID_18_)" d="M248.674,250.151c0.275,0.224,0.389,0.558,0.34,1.003c-0.049,0.451-0.229,1.033-0.544,1.754
			c-0.322,0.736-0.673,1.327-1.05,1.765c-0.383,0.444-0.82,0.742-1.31,0.893c-0.495,0.151-0.92,0.226-1.275,0.223
			c-0.355-0.004-0.859-0.045-1.512-0.126l-23.52-2.704c-1.376-0.17-2.277-0.427-2.69-0.766c-0.411-0.339-0.466-0.781-0.171-1.321
			c0.292-0.533,0.803-1.164,1.523-1.886c0.705-0.707,1.335-1.243,1.897-1.619c0.554-0.37,1.044-0.639,1.47-0.809
			c0.423-0.17,0.883-0.267,1.383-0.294c0.664-0.052,1.539,0.005,2.627,0.171l4.272,0.651l6.297-7.753
			c0.925-1.139,1.913-1.701,2.981-1.723c0.439-0.003,0.976,0.06,1.61,0.185c0.631,0.125,1.08,0.239,1.349,0.345l10.172,4.159
			c0.458,0.194,0.801,0.351,1.029,0.475c0.229,0.124,0.412,0.32,0.553,0.59c0.141,0.271,0.134,0.587-0.024,0.948
			c-0.159,0.366-0.415,0.757-0.77,1.178c-1.013,1.216-2.073,1.757-3.153,1.579c-0.387-0.064-0.861-0.215-1.425-0.455
			c-0.04-0.027-0.071-0.043-0.095-0.047l-8.08-3.27l-3.324,4.872l9.359,1.293c0.586,0.089,1.009,0.17,1.272,0.244
			C248.13,249.778,248.398,249.927,248.674,250.151z"/>
	</g>
	<g>
		<g>
			<linearGradient id="SVGID_19_" gradientUnits="userSpaceOnUse" x1="41.4248" y1="266.8581" x2="100.7732" y2="239.9833">
				<stop  offset="0" style="stop-color:#FFFECF"/>
				<stop  offset="1" style="stop-color:#F7C07C"/>
			</linearGradient>
			<path fill="url(#SVGID_19_)" d="M75.787,239.764c1.876-0.206,4.002,0.363,6.464,1.777c2.637,1.515,4.988,3.575,7.027,6.251
				c2.823,3.706,4.041,6.789,3.405,8.995c-0.656,2.276-2.787,3.407-6.265,3.341c-4.789-0.092-9.475-1.929-13.842-5.203
				c-3.884-2.912-6.62-6.519-8.349-10.651c-0.325-0.776-0.481-1.338-0.475-1.699c0.007-0.357,0.135-0.608,0.386-0.755
				c0.252-0.147,0.609-0.245,1.073-0.294c0.467-0.049,0.863-0.04,1.186,0.028c0.325,0.069,0.596,0.165,0.812,0.287
				c0.217,0.124,0.423,0.313,0.618,0.567c0.271,0.336,0.615,0.929,1.039,1.794c0.436,0.889,0.996,1.765,1.688,2.629
				c0.713,0.89,1.403,1.602,2.065,2.124c1.386,1.076,2.507,1.749,3.331,1.988l0.547,0.185c-0.889-0.968-1.579-1.915-2.082-2.844
				c-1.282-2.368-1.711-4.322-1.359-5.94C73.396,240.774,74.297,239.927,75.787,239.764z M83.715,248.254
				c-1.334-1.973-2.678-2.868-4.071-2.768c-0.473,0.034-0.78,0.274-0.926,0.724c-0.146,0.453,0.072,1.158,0.669,2.133
				c0.615,1.003,1.301,1.783,2.055,2.326c0.771,0.555,1.378,0.829,1.812,0.815c0.437-0.014,0.749-0.061,0.934-0.14
				c0.186-0.079,0.352-0.223,0.498-0.432C84.958,250.498,84.625,249.599,83.715,248.254z"/>
		</g>
		<linearGradient id="SVGID_20_" gradientUnits="userSpaceOnUse" x1="44.2943" y1="273.1945" x2="103.6427" y2="246.3196">
			<stop  offset="0" style="stop-color:#FFFECF"/>
			<stop  offset="1" style="stop-color:#F7C07C"/>
		</linearGradient>
		<path fill="url(#SVGID_20_)" d="M90.743,239.472l16.825,18.88c0.931,1.045,0.011,1.89-2.026,1.854l0,0
			c-1.994-0.035-4.267-0.904-5.073-1.909l-14.695-18.32c-0.465-0.58,0.229-1.163,1.553-1.307l0,0
			C88.674,238.525,90.215,238.879,90.743,239.472z"/>
	</g>
</g>
</svg>
