<?xml version="1.0" encoding="utf-8"?>
<!-- Generator: Adobe Illustrator 22.1.0, SVG Export Plug-In . SVG Version: 6.00 Build 0)  -->
<svg version="1.1" id="Слой_1" xmlns="http://www.w3.org/2000/svg" xmlns:xlink="http://www.w3.org/1999/xlink" x="0px" y="0px"
	 viewBox="0 0 48 48" enable-background="new 0 0 48 48" xml:space="preserve">
<g>
	<g>
		<g>
			<g>
				<g>
					<g>
						<g>
							<path fill="#A67C52" d="M6.296,48H0.394v-5.901h5.902V48z M1.18,47.213h4.328v-4.328H1.18V47.213z"/>
						</g>
					</g>
				</g>
			</g>
			<g>
				<g>
					<g>
						<g>
							<polygon fill="#A67C52" points="24.394,48 12.403,48 8.35,43.797 5.902,43.8 5.902,43.012 8.684,43.01 12.738,47.213 
								24.394,47.213 							"/>
						</g>
					</g>
				</g>
			</g>
			<g>
				<g>
					<g>
						<g>
							<polygon fill="#A67C52" points="5.358,42.443 4.572,42.442 4.579,40.003 0.394,35.924 0.394,24 1.18,24 1.18,35.592 
								5.365,39.673 							"/>
						</g>
					</g>
				</g>
			</g>
		</g>
		<g>
			<g>
				<g>
					<g>
						<g>
							<path fill="#A67C52" d="M47.606,48h-5.901v-5.901h5.901V48z M42.493,47.213h4.328v-4.328h-4.328V47.213z"/>
						</g>
					</g>
				</g>
			</g>
			<g>
				<g>
					<g>
						<g>
							<polygon fill="#A67C52" points="35.598,48 23.608,48 23.608,47.213 35.262,47.213 39.317,43.01 42.1,43.012 42.1,43.8 
								39.65,43.797 							"/>
						</g>
					</g>
				</g>
			</g>
			<g>
				<g>
					<g>
						<g>
							<polygon fill="#A67C52" points="42.642,42.443 42.634,39.673 46.82,35.592 46.82,24 47.606,24 47.606,35.924 43.423,40.003 
								43.428,42.442 							"/>
						</g>
					</g>
				</g>
			</g>
		</g>
	</g>
	<g>
		<g>
			<g>
				<g>
					<g>
						<g>
							<path fill="#A67C52" d="M47.606,5.901h-5.901V0h5.901V5.901z M42.493,5.115h4.328V0.787h-4.328V5.115z"/>
						</g>
					</g>
				</g>
			</g>
			<g>
				<g>
					<g>
						<g>
							<polygon fill="#A67C52" points="39.317,4.99 35.262,0.787 23.608,0.787 23.608,0 35.598,0 39.65,4.203 42.1,4.201 
								42.1,4.988 							"/>
						</g>
					</g>
				</g>
			</g>
			<g>
				<g>
					<g>
						<g>
							<polygon fill="#A67C52" points="47.606,24 46.82,24 46.82,12.408 42.634,8.327 42.642,5.556 43.428,5.559 43.423,7.996 
								47.606,12.075 							"/>
						</g>
					</g>
				</g>
			</g>
		</g>
		<g>
			<g>
				<g>
					<g>
						<g>
							<path fill="#A67C52" d="M6.296,5.901H0.394V0h5.902V5.901z M1.18,5.115h4.328V0.787H1.18V5.115z"/>
						</g>
					</g>
				</g>
			</g>
			<g>
				<g>
					<g>
						<g>
							<polygon fill="#A67C52" points="8.684,4.99 5.902,4.988 5.902,4.201 8.35,4.203 12.403,0 24.394,0 24.394,0.787 
								12.738,0.787 							"/>
						</g>
					</g>
				</g>
			</g>
			<g>
				<g>
					<g>
						<g>
							<polygon fill="#A67C52" points="1.18,24 0.394,24 0.394,12.075 4.579,7.996 4.572,5.559 5.358,5.556 5.365,8.327 
								1.18,12.408 							"/>
						</g>
					</g>
				</g>
			</g>
		</g>
	</g>
</g>
</svg>
