<?xml version="1.0" encoding="utf-8"?>
<!-- Generator: Adobe Illustrator 22.1.0, SVG Export Plug-In . SVG Version: 6.00 Build 0)  -->
<svg version="1.1" id="Слой_1" xmlns="http://www.w3.org/2000/svg" xmlns:xlink="http://www.w3.org/1999/xlink" x="0px" y="0px"
	 viewBox="0 0 48 48" enable-background="new 0 0 48 48" xml:space="preserve">
<g>
	<g>
		<g>
			<g>
				<g>
					<g>
						<g>
							<g>
								<path fill="#A67C52" d="M21.379,47.393H9.858l-0.005-0.396c-0.067-4.203-5.281-9.449-9.455-9.517L0,37.475V26.017h0.807
									v10.677c4.403,0.36,9.474,5.465,9.833,9.893h10.739V47.393z"/>
							</g>
						</g>
					</g>
				</g>
			</g>
			<g>
				<g>
					<g>
						<g>
							<path fill="#A67C52" d="M24.203,45.377H12.85l-0.003-0.199c-0.016-1.133-0.293-1.917-0.752-3.027H5.244V35.8
								c-0.758-0.24-1.522-0.371-2.221-0.383l-0.2-0.002V24H3.23v11.02c0.726,0.033,1.51,0.186,2.28,0.443l0.139,0.045v6.24h6.718
								l0.052,0.124c0.479,1.155,0.78,1.963,0.828,3.103h10.957V45.377z"/>
						</g>
					</g>
				</g>
			</g>
			<g>
				<g>
					<g>
						<g>
							<path fill="#A67C52" d="M5.649,47.393H0v-5.646h5.649V47.393z M0.404,46.991h4.84v-4.84h-4.84V46.991z"/>
						</g>
					</g>
				</g>
			</g>
			<g>
				<g>
					<g>
						<g>
							<rect y="44.57" fill="#A67C52" width="2.824" height="2.823"/>
						</g>
					</g>
				</g>
			</g>
		</g>
		<g>
			<g>
				<g>
					<g>
						<g>
							<g>
								<path fill="#A67C52" d="M38.142,47.393H26.622v-0.806H37.36c0.357-4.428,5.431-9.533,9.831-9.893V26.017H48v11.458
									l-0.397,0.005c-4.174,0.067-9.389,5.314-9.455,9.517L38.142,47.393z"/>
							</g>
						</g>
					</g>
				</g>
			</g>
			<g>
				<g>
					<g>
						<g>
							<path fill="#A67C52" d="M35.149,45.377H23.799v-0.403h10.956c0.048-1.14,0.349-1.947,0.829-3.103l0.05-0.124h6.719v-6.24
								l0.137-0.045c0.771-0.257,1.556-0.41,2.282-0.443V24h0.403v11.415l-0.197,0.002c-0.7,0.012-1.465,0.142-2.221,0.383v6.351
								h-6.854c-0.457,1.11-0.735,1.894-0.749,3.027L35.149,45.377z"/>
						</g>
					</g>
				</g>
			</g>
			<g>
				<g>
					<g>
						<g>
							<path fill="#A67C52" d="M48,47.393h-5.647v-5.646H48V47.393z M42.757,46.991h4.839v-4.84h-4.839V46.991z"/>
						</g>
					</g>
				</g>
			</g>
			<g>
				<g>
					<g>
						<g>
							<rect x="45.175" y="44.57" fill="#A67C52" width="2.825" height="2.823"/>
						</g>
					</g>
				</g>
			</g>
		</g>
	</g>
	<g>
		<g>
			<g>
				<g>
					<g>
						<g>
							<g>
								<path fill="#A67C52" d="M48,21.984h-0.809V11.308c-4.4-0.362-9.474-5.466-9.831-9.895H26.622V0.607h11.519l0.006,0.397
									c0.067,4.202,5.281,9.449,9.455,9.515L48,10.525V21.984z"/>
							</g>
						</g>
					</g>
				</g>
			</g>
			<g>
				<g>
					<g>
						<g>
							<path fill="#A67C52" d="M45.175,24h-0.403V12.981c-0.726-0.032-1.511-0.185-2.282-0.442l-0.137-0.046V6.254h-6.719
								l-0.05-0.125c-0.481-1.155-0.782-1.963-0.829-3.102H23.799V2.623h11.351l0.005,0.198c0.014,1.135,0.291,1.918,0.749,3.029
								h6.854v6.351c0.756,0.24,1.521,0.371,2.221,0.382l0.197,0.003V24z"/>
						</g>
					</g>
				</g>
			</g>
			<g>
				<g>
					<g>
						<g>
							<path fill="#A67C52" d="M48,6.254h-5.647V0.607H48V6.254z M42.757,5.85h4.839V1.01h-4.839V5.85z"/>
						</g>
					</g>
				</g>
			</g>
			<g>
				<g>
					<g>
						<g>
							<rect x="45.175" y="0.607" fill="#A67C52" width="2.825" height="2.823"/>
						</g>
					</g>
				</g>
			</g>
		</g>
		<g>
			<g>
				<g>
					<g>
						<g>
							<g>
								<path fill="#A67C52" d="M0.807,21.984H0V10.525l0.398-0.006c4.174-0.067,9.389-5.313,9.455-9.515l0.005-0.397h11.521v0.806
									H10.64c-0.358,4.429-5.429,9.533-9.833,9.895V21.984z"/>
							</g>
						</g>
					</g>
				</g>
			</g>
			<g>
				<g>
					<g>
						<g>
							<path fill="#A67C52" d="M3.23,24H2.824V12.586l0.2-0.003c0.698-0.011,1.462-0.142,2.221-0.382V5.85h6.851
								c0.459-1.11,0.735-1.893,0.752-3.029l0.003-0.198h11.353v0.404H13.246c-0.048,1.14-0.349,1.947-0.828,3.102l-0.052,0.125
								H5.649v6.239L5.51,12.539c-0.771,0.257-1.555,0.41-2.28,0.442V24z"/>
						</g>
					</g>
				</g>
			</g>
			<g>
				<g>
					<g>
						<g>
							<path fill="#A67C52" d="M5.649,6.254H0V0.607h5.649V6.254z M0.404,5.85h4.84V1.01h-4.84V5.85z"/>
						</g>
					</g>
				</g>
			</g>
			<g>
				<g>
					<g>
						<g>
							<rect y="0.607" fill="#A67C52" width="2.824" height="2.823"/>
						</g>
					</g>
				</g>
			</g>
		</g>
	</g>
</g>
</svg>
