<?xml version="1.0" encoding="utf-8"?>
<!-- Generator: Adobe Illustrator 19.2.1, SVG Export Plug-In . SVG Version: 6.00 Build 0)  -->
<svg version="1.1" id="Layer_1" xmlns="http://www.w3.org/2000/svg" xmlns:xlink="http://www.w3.org/1999/xlink" x="0px" y="0px"
	 viewBox="0 0 150.8 123" style="enable-background:new 0 0 150.8 123;" xml:space="preserve">
<style type="text/css">
	.st0{fill:#F6893F;}
	.st1{fill:#F05254;}
	.st2{fill:#F8D424;}
</style>
<g>
	<g>
		<g>
			<path class="st0" d="M149,97.7c0,0-0.1,0-0.1,0l-18.1-4.4c-0.2-0.1-0.4-0.3-0.3-0.5c0.1-0.2,0.3-0.4,0.5-0.3l18.1,4.4
				c0.2,0.1,0.4,0.3,0.3,0.5C149.3,97.6,149.2,97.7,149,97.7z"/>
		</g>
		<g>
			<path class="st0" d="M140.5,103.5c-0.1,0-0.2,0-0.3,0l-9.2-2.2c-0.7-0.2-1.1-0.9-1-1.6c0.2-0.7,0.9-1.1,1.6-1l9.2,2.2
				c0.7,0.2,1.1,0.9,1,1.6C141.6,103.1,141.1,103.5,140.5,103.5z"/>
		</g>
		<g>
			<path class="st0" d="M146.9,110.9c-0.1,0-0.1,0-0.2,0l-16.5-4c-0.5-0.1-0.7-0.6-0.6-1c0.1-0.5,0.6-0.7,1-0.6l16.5,4
				c0.5,0.1,0.7,0.6,0.6,1C147.7,110.6,147.3,110.9,146.9,110.9z"/>
		</g>
		
			<rect x="141.5" y="90" transform="matrix(-0.9722 -0.2341 0.2341 -0.9722 260.2094 213.3834)" class="st0" width="2.6" height="2.6"/>
	</g>
	<g>
		<g>
			<path class="st0" d="M22.1,29.6c0,0-0.1,0-0.1,0L1.9,23.3c-0.2-0.1-0.4-0.3-0.3-0.5c0.1-0.2,0.3-0.4,0.5-0.3l20.1,6.3
				c0.2,0.1,0.4,0.3,0.3,0.5C22.5,29.4,22.3,29.6,22.1,29.6z"/>
		</g>
		<g>
			<path class="st0" d="M22,24c-0.1,0-0.3,0-0.4-0.1L12,20.7c-0.7-0.2-1-1-0.8-1.6c0.2-0.7,1-1,1.6-0.8l9.5,3.3c0.7,0.2,1,1,0.8,1.6
				C23,23.7,22.5,24,22,24z"/>
		</g>
		<g>
			<path class="st0" d="M22.3,16.6c-0.1,0-0.2,0-0.3,0L7.9,12.2c-0.5-0.1-0.7-0.6-0.6-1.1c0.1-0.5,0.6-0.7,1.1-0.6l14.1,4.4
				c0.5,0.1,0.7,0.6,0.6,1.1C23,16.3,22.6,16.6,22.3,16.6z"/>
		</g>
		<g>
			<rect x="6.5" y="28" transform="matrix(0.9548 0.2974 -0.2974 0.9548 9.0711 -0.9994)" class="st0" width="2.6" height="2.6"/>
		</g>
	</g>
	<g>
		<g>
			<path class="st0" d="M129.6,118.4L19,114c-0.4,0-0.6-0.3-0.6-0.7L22.8,2.8c0-0.3,0.3-0.6,0.7-0.6L134,6.5c0.4,0,0.6,0.3,0.6,0.7
				l-4.4,110.6C130.2,118.1,129.9,118.4,129.6,118.4z M19.7,112.8l109.3,4.3l4.3-109.3L24,3.4L19.7,112.8z"/>
		</g>
		<g>
			<path class="st1" d="M133.9,116.8l-110.6,3.6c-0.5,0-1-0.4-1-0.9L18.7,8.8c0-0.5,0.4-1,0.9-1l110.6-3.6c0.5,0,1,0.4,1,0.9
				l3.6,110.6C134.9,116.3,134.5,116.7,133.9,116.8z M24.2,118.4l108.7-3.5L129.4,6.2L20.7,9.7L24.2,118.4z"/>
		</g>
		<g>
			<path class="st2" d="M123.9,120.1l-110.6-4.6c-0.2,0-0.3-0.2-0.3-0.3L17.7,4.5c0-0.2,0.2-0.3,0.3-0.3l110.6,4.6
				c0.2,0,0.3,0.2,0.3,0.3l-4.6,110.6C124.3,119.9,124.1,120.1,123.9,120.1z M13.7,114.8l109.9,4.6l4.6-109.9L18.3,4.9L13.7,114.8z"
				/>
		</g>
	</g>
</g>
</svg>
