<?xml version="1.0" encoding="utf-8"?>
<!-- Generator: Adobe Illustrator 19.2.1, SVG Export Plug-In . SVG Version: 6.00 Build 0)  -->
<svg version="1.1" id="Layer_1" xmlns="http://www.w3.org/2000/svg" xmlns:xlink="http://www.w3.org/1999/xlink" x="0px" y="0px"
	 viewBox="0 0 150 150" style="enable-background:new 0 0 150 150;" xml:space="preserve">
<style type="text/css">
	.st0{fill:#3C8BBD;}
	.st1{fill:#524C9E;}
	.st2{fill:#35C2D8;}
</style>
<g>
	<g>
		<g>
			<path class="st0" d="M82.1,15.9C82.1,15.8,82,15.8,82.1,15.9c-0.3-0.2-0.3-0.4-0.2-0.6l9.6-13.5c0.1-0.2,0.4-0.2,0.5-0.1
				c0.2,0.1,0.2,0.4,0.1,0.5l-9.6,13.5C82.4,15.9,82.3,15.9,82.1,15.9z"/>
		</g>
		<g>
			<path class="st0" d="M86.8,19.3c-0.1,0-0.2-0.1-0.3-0.1c-0.5-0.4-0.6-1.1-0.3-1.6l4.7-6.7c0.4-0.5,1.1-0.6,1.6-0.3
				c0.5,0.4,0.6,1.1,0.3,1.6l-4.7,6.7C87.9,19.3,87.3,19.5,86.8,19.3z"/>
		</g>
		<g>
			<path class="st0" d="M92,22.8c-0.1,0-0.1,0-0.2-0.1c-0.4-0.2-0.5-0.7-0.2-1.1l7.6-11.8c0.2-0.4,0.7-0.5,1.1-0.2
				c0.4,0.2,0.5,0.7,0.2,1.1l-7.6,11.8C92.7,22.8,92.4,23,92,22.8z"/>
		</g>
	</g>
	<g>
		<g>
			<path class="st0" d="M69.9,134.7C70,134.7,70,134.7,69.9,134.7c0.3,0.2,0.3,0.4,0.2,0.6l-9.6,13.5c-0.1,0.2-0.4,0.2-0.5,0.1
				c-0.2-0.1-0.2-0.4-0.1-0.5l9.6-13.5C69.6,134.7,69.8,134.6,69.9,134.7z"/>
		</g>
		<g>
			<path class="st0" d="M65.2,131.2c0.1,0,0.2,0.1,0.3,0.1c0.5,0.4,0.6,1.1,0.3,1.6l-4.7,6.6c-0.4,0.5-1.1,0.6-1.6,0.3
				c-0.5-0.4-0.6-1.1-0.3-1.6l4.7-6.6C64.2,131.2,64.7,131.1,65.2,131.2z"/>
		</g>
		<g>
			<path class="st0" d="M60,127.7c0.1,0,0.1,0,0.2,0.1c0.4,0.2,0.5,0.7,0.2,1.1l-7.6,11.8c-0.2,0.4-0.7,0.5-1.1,0.2
				c-0.4-0.2-0.5-0.7-0.2-1.1l7.6-11.8C59.3,127.7,59.7,127.6,60,127.7z"/>
		</g>
	</g>
	<g>
		<path class="st1" d="M86,136.2l-57.6-20.1c-0.4-0.1-0.7-0.5-0.8-0.9l-11.4-60c-0.1-0.4,0.1-0.8,0.4-1.1l46.2-39.9
			c0.3-0.3,0.7-0.4,1.1-0.2l57.6,20.1c0.4,0.1,0.7,0.5,0.8,0.9l11.4,60c0.1,0.4-0.1,0.8-0.4,1.1L87.1,136
			C86.8,136.2,86.4,136.3,86,136.2z M29.8,114.1l56.3,19.6l45.2-39.1L120.2,36L63.9,16.4L18.7,55.4L29.8,114.1z"/>
	</g>
	<g>
		<path class="st0" d="M70.3,136.7c-0.1,0-0.1-0.1-0.2-0.1l-50.5-34.4c-0.2-0.2-0.4-0.4-0.3-0.7l4.4-60.9c0-0.3,0.2-0.5,0.4-0.6
			l54.9-26.5c0.2-0.1,0.5-0.1,0.8,0.1l50.5,34.4c0.2,0.2,0.4,0.4,0.3,0.7l-4.4,60.9c0,0.3-0.2,0.5-0.4,0.6l-54.9,26.5
			C70.7,136.8,70.5,136.8,70.3,136.7z M20.9,101.2l49.7,33.9l54.1-26.1l4.4-60L79.4,15L25.3,41.2L20.9,101.2z"/>
	</g>
	<g>
		<path class="st2" d="M40.5,125.9c-0.1,0-0.2-0.1-0.2-0.2L13.7,70.8c-0.1-0.1,0-0.3,0-0.4l34.4-50.5c0.1-0.1,0.2-0.2,0.3-0.2
			l60.9,4.4c0.1,0,0.3,0.1,0.3,0.2l26.5,54.9c0.1,0.1,0,0.3,0,0.4l-34.4,50.5c-0.1,0.1-0.2,0.2-0.3,0.2L40.5,125.9
			C40.5,125.9,40.5,125.9,40.5,125.9z M14.5,70.7l26.3,54.5l60.5,4.4l34.2-50.1L109.2,25l-60.5-4.4L14.5,70.7z"/>
	</g>
	<g>
		<path class="st0" d="M80.1,6.8l0.7-1c0,0,0,0,0.1,0l1.3,0.1c0,0,0,0,0,0L82.7,7c0,0,0,0,0,0l-0.7,1c0,0,0,0,0,0L80.7,8
			c0,0,0,0,0,0L80.1,6.8C80.1,6.8,80.1,6.8,80.1,6.8z"/>
	</g>
	<g>
		<path class="st0" d="M47.3,34.1l0.7-1c0,0,0,0,0.1,0l1.3,0.1c0,0,0,0,0,0l0.5,1.1c0,0,0,0,0,0l-0.7,1c0,0,0,0,0,0L48,35.3
			c0,0,0,0,0,0L47.3,34.1C47.4,34.1,47.3,34.1,47.3,34.1z"/>
	</g>
	<g>
		<path class="st0" d="M55.3,144.1l0.7-1c0,0,0,0,0,0l1.3,0.1c0,0,0,0,0,0l0.5,1.1c0,0,0,0,0,0l-0.7,1c0,0,0,0,0,0l-1.3-0.1
			c0,0,0,0,0,0L55.3,144.1C55.3,144.1,55.3,144.1,55.3,144.1z"/>
	</g>
</g>
</svg>
